<svg width="20" height="20" viewBox="0 0 20 20" fill="none" xmlns="http://www.w3.org/2000/svg">
<path d="M10.6123 0.506836C10.7636 0.525598 10.9104 0.569944 11.0469 0.637695C11.2687 0.747831 11.4182 0.940055 11.5195 1.17969C11.5941 1.35598 11.6464 1.56669 11.6846 1.80762L11.7188 2.05957C11.7956 2.74455 11.7959 3.70418 11.7959 4.95117V5.00391C11.7959 5.45556 11.7967 5.77354 11.8252 6.0166V6.01758C11.839 6.13429 11.8585 6.22634 11.8848 6.30176V6.30273C11.8955 6.33363 11.9096 6.36674 11.9277 6.40039C11.9371 6.41772 11.947 6.43574 11.959 6.45312C11.9649 6.46173 11.971 6.4694 11.9766 6.47656C11.9793 6.48011 11.9825 6.48306 11.9844 6.48535V6.48633C12.0196 6.52975 12.0598 6.5695 12.1035 6.60547V6.60645C12.1055 6.60808 12.1074 6.60973 12.1094 6.61133V6.61035C12.1653 6.65569 12.2263 6.68628 12.291 6.70898V6.70996C12.3664 6.73637 12.4595 6.75561 12.5781 6.76953C12.8214 6.79801 13.1402 6.79883 13.5928 6.79883H14.2061C15.0682 6.79879 15.7461 6.80036 16.2451 6.87402C16.7592 6.94994 17.165 7.1131 17.3779 7.50879C17.5906 7.90405 17.5033 8.33119 17.2832 8.80078C17.0693 9.2569 16.6966 9.82212 16.2207 10.54L12.3975 16.3086C11.7082 17.3487 11.1771 18.1489 10.7344 18.6777C10.5097 18.9461 10.2952 19.1593 10.082 19.3008C9.86479 19.4449 9.63366 19.5236 9.3877 19.4932C9.23645 19.4745 9.08961 19.4301 8.95312 19.3623C8.73129 19.2521 8.58181 19.06 8.48047 18.8203C8.38099 18.585 8.32031 18.289 8.28125 17.9414C8.20432 17.2564 8.20409 16.2962 8.2041 15.0488V14.9961C8.2041 14.5444 8.20331 14.2265 8.1748 13.9834C8.16783 13.924 8.15945 13.8707 8.14941 13.8232L8.11426 13.6963L8.07227 13.5996C8.06309 13.5826 8.0529 13.5651 8.04102 13.5479C8.03504 13.5392 8.02912 13.5308 8.02344 13.5234C8.02071 13.5199 8.01767 13.5172 8.01562 13.5146C8.01373 13.5123 8.01172 13.5098 8.01172 13.5098C7.97963 13.4708 7.94375 13.435 7.90527 13.4023H7.90625L7.90137 13.3975C7.89949 13.3959 7.8974 13.3941 7.89551 13.3926L7.86035 13.3662C7.84449 13.3552 7.82809 13.3451 7.81152 13.3359C7.77847 13.3176 7.7429 13.3025 7.70703 13.29C7.63142 13.2637 7.5391 13.2442 7.42188 13.2305C7.17853 13.2019 6.85975 13.2012 6.40723 13.2012H5.79395C4.93162 13.2012 4.25391 13.1997 3.75488 13.126C3.24079 13.0501 2.83495 12.8868 2.62207 12.4912C2.40941 12.0959 2.49672 11.6687 2.7168 11.1992C2.93062 10.7431 3.30338 10.1779 3.7793 9.45996L7.60254 3.69141C8.2919 2.65125 8.82284 1.85113 9.26562 1.32227C9.49038 1.05382 9.70488 0.840662 9.91797 0.699219C10.1352 0.555078 10.3663 0.476405 10.6123 0.506836ZM10.2939 1.06152C10.264 1.07665 10.2315 1.09531 10.1973 1.11816C10.0437 1.22023 9.86649 1.39123 9.6543 1.64453V1.64551C9.22772 2.1551 8.70583 2.94036 7.99512 4.0127L4.23535 9.68652C3.73452 10.4422 3.37448 10.9861 3.1748 11.4121C3.10091 11.5697 3.05352 11.7025 3.02832 11.8164L3.01074 11.9238C3.00724 11.9571 3.00598 11.9889 3.00684 12.0186C3.00727 12.0334 3.00834 12.0486 3.00977 12.0625C3.01045 12.0691 3.01082 12.0757 3.01172 12.082C3.01219 12.0854 3.01314 12.0895 3.01367 12.0928C3.01392 12.0943 3.01439 12.0962 3.01465 12.0977V12.1016V12.1025L3.02734 12.168L3.05566 12.2275L3.05664 12.2305L3.06152 12.2412L3.06641 12.251C3.07057 12.2588 3.07687 12.2702 3.08496 12.2832C3.08908 12.2898 3.09483 12.2981 3.10156 12.3076C3.10502 12.3125 3.1096 12.3182 3.11426 12.3242C3.1166 12.3273 3.11931 12.3306 3.12207 12.334C3.12346 12.3357 3.12446 12.338 3.12598 12.3398L3.13086 12.3447L3.14746 12.3643L3.16504 12.3809L3.16895 12.3848C3.1701 12.3858 3.17168 12.3866 3.17285 12.3877C3.17521 12.3899 3.17726 12.3924 3.17969 12.3945C3.1848 12.399 3.19087 12.4038 3.19629 12.4082C3.20703 12.417 3.21856 12.4252 3.23047 12.4336C3.25448 12.4504 3.28047 12.4672 3.30957 12.4824H3.31055C3.40137 12.5296 3.51822 12.5687 3.66797 12.5996L3.8291 12.6279C4.29479 12.6967 4.94727 12.6973 5.85449 12.6973H6.44629C6.76362 12.6973 7.03499 12.6974 7.26465 12.7109L7.48047 12.7295C7.76579 12.763 8.00663 12.8343 8.20996 12.999C8.28261 13.0579 8.34925 13.1238 8.4082 13.1963C8.57306 13.3992 8.64432 13.6402 8.67773 13.9248C8.70937 14.1946 8.71 14.535 8.70996 14.957V14.9961C8.70996 16.2819 8.71006 17.2246 8.78418 17.8848C8.82115 18.214 8.87449 18.4551 8.94629 18.625H8.94727C8.96295 18.662 8.97875 18.6948 8.99512 18.7236L9.08203 18.8779L9.24707 18.9424C9.28938 18.959 9.33217 18.9713 9.37402 18.9805L9.54785 19.0186L9.70605 18.9385C9.73621 18.9232 9.76788 18.9034 9.80176 18.8809C9.95532 18.7788 10.1331 18.6085 10.3457 18.3545C10.7723 17.8449 11.2942 17.0596 12.0049 15.9873L15.7646 10.3135C16.2654 9.55781 16.6256 9.0138 16.8252 8.58789C16.8992 8.42995 16.9465 8.29722 16.9717 8.18359L16.9893 8.07617C16.9928 8.04252 16.9941 8.01001 16.9932 7.97949C16.9927 7.96447 16.9918 7.94983 16.9902 7.93555C16.9895 7.92837 16.9883 7.92104 16.9873 7.91406C16.9868 7.91057 16.9869 7.90676 16.9863 7.90332C16.9861 7.90171 16.9856 7.90003 16.9854 7.89844L16.9844 7.89551V7.89355L16.9805 7.87402C16.9778 7.86239 16.9744 7.85196 16.9717 7.84277C16.9662 7.82452 16.9609 7.80881 16.9561 7.79688L16.9297 7.74316L16.9141 7.7168L16.8906 7.68164C16.8888 7.67921 16.8869 7.67656 16.8848 7.67383C16.8836 7.67235 16.8821 7.67052 16.8809 7.66895L16.8789 7.66699L16.8779 7.66504H16.877V7.66406L16.8564 7.63965L16.834 7.61816L16.832 7.61621L16.8301 7.61523C16.8289 7.61416 16.8283 7.6124 16.8271 7.61133C16.8247 7.60912 16.8218 7.60669 16.8193 7.60449C16.8144 7.60018 16.809 7.59607 16.8037 7.5918C16.7931 7.58312 16.7815 7.57482 16.7695 7.56641L16.6895 7.51758C16.5682 7.45449 16.4009 7.40603 16.1709 7.37207C15.7053 7.30335 15.0528 7.30273 14.1455 7.30273H13.5527C13.1302 7.30277 12.7899 7.30215 12.5195 7.27051C12.2345 7.23713 11.9935 7.16572 11.79 7.00098C11.7175 6.94217 11.6508 6.87629 11.5918 6.80371C11.427 6.60074 11.3557 6.35976 11.3223 6.0752C11.2906 5.80544 11.29 5.46531 11.29 5.04297V5.00391C11.29 3.71794 11.2899 2.77537 11.2158 2.11523C11.1788 1.78617 11.1255 1.54491 11.0537 1.375L11.0527 1.37402C11.0377 1.33868 11.0221 1.30553 11.0049 1.27539L10.916 1.12109L10.751 1.05664L10.626 1.01953L10.4521 0.981445L10.2939 1.06152Z" fill="#42429B" stroke="#42429B"/>
<rect x="10" y="1" width="1" height="8" fill="#42429B"/>
<rect x="10" y="19" width="1" height="10" transform="rotate(180 10 19)" fill="#42429B"/>
<rect x="9" y="19" width="1" height="10" transform="rotate(180 9 19)" fill="#42429B"/>
<rect x="9" y="2" width="1" height="8" fill="#42429B"/>
<rect x="11" y="18" width="1" height="11" transform="rotate(180 11 18)" fill="#42429B"/>
<rect x="8" y="3" width="1" height="8" fill="#42429B"/>
<rect x="12" y="17" width="1" height="11" transform="rotate(180 12 17)" fill="#42429B"/>
<rect x="7" y="5" width="1" height="8" fill="#42429B"/>
<rect x="13" y="15" width="1" height="8" transform="rotate(180 13 15)" fill="#42429B"/>
<rect x="6" y="6" width="1" height="7" fill="#42429B"/>
<path d="M15 13C15 13.5523 14.5523 14 14 14H13V7H15V13Z" fill="#42429B"/>
<rect x="5" y="8" width="1" height="5" fill="#42429B"/>
<rect x="15" y="12" width="1" height="5" transform="rotate(180 15 12)" fill="#42429B"/>
<rect x="4" y="9" width="1" height="4" fill="#42429B"/>
<rect x="16" y="11" width="1" height="4" transform="rotate(180 16 11)" fill="#42429B"/>
<rect x="3" y="10" width="1" height="3" fill="#42429B"/>
<rect x="17" y="10" width="1" height="3" transform="rotate(180 17 10)" fill="#42429B"/>
</svg>
