<svg width="112" height="53" viewBox="0 0 112 53" fill="none" xmlns="http://www.w3.org/2000/svg">
<g clip-path="url(#clip0_38_483)">
<g clip-path="url(#clip1_38_483)">
<mask id="mask0_38_483" style="mask-type:luminance" maskUnits="userSpaceOnUse" x="32" y="8" width="47" height="37">
<path d="M78.199 8.52612H32.4976V44.7721H78.199V8.52612Z" fill="white"/>
</mask>
<g mask="url(#mask0_38_483)">
<path fill-rule="evenodd" clip-rule="evenodd" d="M38.6134 44.265H75.8838C76.0375 44.0909 76.156 44.0521 76.3673 43.8469C76.8746 43.3633 77.2475 42.7629 77.4511 42.1018C77.7992 41.0602 77.8756 39.9511 77.6736 38.874C77.2782 36.8879 76.6827 34.8163 76.1864 32.8223L71.7069 14.6974C71.1898 12.6258 69.9586 11.2816 68.3994 10.4237C66.2427 9.23488 64.4705 9.51927 62.0418 10.0865C59.9462 10.576 57.9129 11.064 55.8237 11.5365C54.7223 11.7866 38.6518 15.4076 37.2574 15.9609C35.5556 16.6338 34.0971 17.9889 33.4791 19.7791C32.7459 21.9066 33.5976 24.1337 34.0939 26.1477L37.1069 38.2056C37.5872 40.2042 38.1956 42.254 38.6118 44.2664L38.6134 44.265Z" fill="#ED6B06"/>
<path fill-rule="evenodd" clip-rule="evenodd" d="M70.9622 29.3063L70.8837 28.0103L68.8042 27.9683L68.8681 35.4278L71.2744 35.4635C71.2713 34.1923 71.2424 32.9118 71.2744 31.6795C71.3097 30.2963 72.1598 29.8456 73.6086 30.0445L73.6053 27.8252C71.3721 27.7258 71.3417 29.0281 70.9622 29.3063ZM67.5939 35.1745L67.2976 33.6204C66.891 33.5583 65.9303 34.009 64.6529 33.8317C63.8908 33.7261 62.9686 33.2738 63.0327 32.4844L67.9557 32.4736C68.1525 30.287 67.5713 28.5759 65.8424 27.9931C64.1502 27.4228 62.0705 28.0522 61.1739 29.7663C60.0372 31.942 60.7658 35.5102 64.536 35.6189C65.8968 35.6578 66.4475 35.4511 67.5939 35.1745ZM38.2513 35.4479H40.6849V31.1712H44.6328V35.4479H47.0662V25.0792H44.6328V29.0499H40.6833V25.0792H38.2498V35.4479H38.2513ZM54.3026 29.0716C54.2434 27.6777 54.783 28.0864 52.1621 28.0103L52.2405 33.7976C51.6482 33.7727 51.2863 33.4713 51.0703 33.0548C50.6172 32.1875 50.7581 30.2326 50.7581 29.2177L50.7565 27.9901H48.3583C48.2141 29.0934 48.283 32.5325 48.624 33.4604C49.3157 35.3469 50.795 35.4325 52.2262 35.6796V38.5079C52.7768 38.5079 54.1761 38.5856 54.618 38.4567V35.6547C56.9873 35.6515 59.1295 35.6531 59.9012 33.3003C60.1296 32.5544 60.1961 31.7707 60.0965 30.9987C59.8981 29.2893 58.8253 28.1174 57.4196 27.8798C56.0669 27.6513 55.3913 28.0864 54.4771 28.9226C54.4216 28.975 54.3633 29.0248 54.3026 29.0716Z" fill="#42429B"/>
<path fill-rule="evenodd" clip-rule="evenodd" d="M55.6465 29.7572C54.6251 30.1194 54.6187 31.0938 54.6187 32.2888C54.6187 32.5934 54.6203 32.8964 54.6155 33.2011C54.6108 33.5741 54.5115 33.7931 54.8172 33.8444C55.1279 33.8957 56.2854 33.8631 56.5719 33.773C58.4322 33.187 57.9134 28.9538 55.6465 29.7572ZM62.9869 30.8684H65.7886C65.7181 28.8202 63.2559 28.8637 62.9869 30.8684Z" fill="#ED6B06"/>
<path fill-rule="evenodd" clip-rule="evenodd" d="M49.5594 24.6622C49.7278 24.6624 49.8945 24.6947 50.05 24.7573C50.2056 24.82 50.3469 24.9117 50.4659 25.0274C50.5849 25.143 50.6793 25.2803 50.7437 25.4314C50.808 25.5824 50.8411 25.7444 50.841 25.9078C50.8408 26.0713 50.8076 26.2331 50.7431 26.3841C50.6785 26.535 50.5839 26.6723 50.4648 26.7878C50.3457 26.9033 50.2043 26.9949 50.0486 27.0573C49.8929 27.1199 49.7262 27.1519 49.5579 27.1519C49.2176 27.1519 48.8916 27.0207 48.6511 26.7872C48.4106 26.5538 48.2754 26.2372 48.2754 25.907C48.2754 25.5769 48.4106 25.2603 48.6511 25.0269C48.8916 24.7933 49.2176 24.6622 49.5579 24.6622H49.5594Z" fill="#FFC600"/>
</g>
</g>
</g>
<defs>
<clipPath id="clip0_38_483">
<rect width="67.7642" height="52" fill="white" transform="translate(22.2483 0.658325)"/>
</clipPath>
<clipPath id="clip1_38_483">
<rect width="67.7642" height="52" fill="white" transform="translate(22.2483 0.658325)"/>
</clipPath>
</defs>
</svg>
