<svg width="140" height="53" viewBox="0 0 140 53" fill="none" xmlns="http://www.w3.org/2000/svg">
<g clip-path="url(#clip0_38_533)">
<g clip-path="url(#clip1_38_533)">
<mask id="mask0_38_533" style="mask-type:luminance" maskUnits="userSpaceOnUse" x="35" y="10" width="71" height="34">
<path d="M105.1 10.1387H35.7275V43.1773H105.1V10.1387Z" fill="white"/>
</mask>
<g mask="url(#mask0_38_533)">
<path d="M68.5063 27.2216V35.2862H65.9048V15.3416H72.6686C74.3162 15.3416 75.8772 15.9486 77.0912 17.0759C78.3051 18.1164 78.9121 19.6773 78.9121 21.3249C78.9121 22.9726 78.3051 24.4466 77.0912 25.5739C75.8772 26.7013 74.403 27.3083 72.6686 27.3083L68.5063 27.2216ZM68.5063 17.7695V24.7068H72.842C73.7959 24.7068 74.7498 24.3599 75.3569 23.6663C76.7443 22.3655 76.7443 20.1976 75.4436 18.8968L75.3569 18.8101C74.6631 18.1164 73.7959 17.6828 72.842 17.7695H68.5063Z" fill="black"/>
<path d="M84.8944 21.2388C86.802 21.2388 88.2762 21.7591 89.4036 22.7997C90.5309 23.8403 91.0512 25.2278 91.0512 26.9621V35.2867H88.6231V33.3791H88.5364C87.4958 34.9399 86.0216 35.7203 84.2874 35.7203C82.8132 35.7203 81.5124 35.2867 80.4718 34.4195C79.5179 33.5525 78.9109 32.3385 78.9109 31.0377C78.9109 29.6502 79.4312 28.5229 80.4718 27.6557C81.5124 26.7887 82.9866 26.4418 84.721 26.4418C86.2817 26.4418 87.4958 26.702 88.4497 27.3089V26.702C88.4497 25.8348 88.1028 24.9676 87.4091 24.4473C86.7153 23.8403 85.8481 23.4934 84.8944 23.4934C83.4202 23.4934 82.2929 24.1005 81.5124 25.3145L79.2578 23.927C80.6452 22.1059 82.4663 21.2388 84.8944 21.2388ZM81.5991 31.1244C81.5991 31.8182 81.946 32.4252 82.4663 32.7721C83.0733 33.2057 83.7671 33.4658 84.4608 33.4658C85.5013 33.4658 86.5419 33.0322 87.3223 32.2518C88.1895 31.4713 88.6231 30.5174 88.6231 29.4768C87.8427 28.8698 86.7153 28.5229 85.2411 28.5229C84.2007 28.5229 83.3335 28.7831 82.6397 29.3034C81.946 29.7369 81.5991 30.344 81.5991 31.1244Z" fill="black"/>
<path d="M105.097 21.6719L96.5116 41.3563H93.9101L97.1187 34.5058L91.4822 21.7586H94.257L98.3327 31.5575H98.4194L102.408 21.7586H105.097V21.6719Z" fill="black"/>
<path d="M58.1885 25.4875C58.1885 24.707 58.1018 23.9266 58.0151 23.1461H47.1755V27.5686H53.3323C53.0723 28.956 52.2919 30.2568 51.0778 31.0373V33.8988H54.8065C56.9745 31.9044 58.1885 28.956 58.1885 25.4875Z" fill="#4285F4"/>
<path d="M47.1726 36.6739C50.2945 36.6739 52.8958 35.6333 54.8036 33.8989L51.0748 31.0374C50.0343 31.7311 48.7335 32.1647 47.1726 32.1647C44.2242 32.1647 41.6228 30.1702 40.7557 27.3953H36.9402V30.3437C38.9346 34.2458 42.8369 36.6739 47.1726 36.6739Z" fill="#34A853"/>
<path d="M40.7534 27.3947C40.233 26.0072 40.233 24.4463 40.7534 22.9722V20.0238H36.9379C35.2902 23.2324 35.2902 27.0478 36.9379 30.3429L40.7534 27.3947Z" fill="#FE8800"/>
<path d="M47.174 18.2901C48.8216 18.2901 50.3826 18.8971 51.5965 20.0244L54.8917 16.7293C52.8105 14.8215 50.0357 13.6942 47.2607 13.7809C42.925 13.7809 38.936 16.209 37.0283 20.1111L40.8438 23.0595C41.6242 20.2846 44.2258 18.2901 47.174 18.2901Z" fill="#EA4335"/>
</g>
</g>
</g>
<defs>
<clipPath id="clip0_38_533">
<rect width="94.8042" height="52" fill="white" transform="translate(22.5774 0.658325)"/>
</clipPath>
<clipPath id="clip1_38_533">
<rect width="94.8042" height="52" fill="white" transform="translate(22.5774 0.658325)"/>
</clipPath>
</defs>
</svg>
