<svg width="97" height="53" viewBox="0 0 97 53" fill="none" xmlns="http://www.w3.org/2000/svg">
<g clip-path="url(#clip0_38_495)">
<g clip-path="url(#clip1_38_495)">
<path fill-rule="evenodd" clip-rule="evenodd" d="M27.7717 6.0365H69.0131V47.2779H27.7717V6.0365Z" fill="#016FD0"/>
<path fill-rule="evenodd" clip-rule="evenodd" d="M42.7114 40.7518V25.9735L69.0121 25.9965V30.0795L65.9717 33.3284L69.0121 36.607V40.7748H64.1592L61.5794 37.9291L59.0178 40.7863L42.7114 40.7518Z" fill="#42429B"/>
<path fill-rule="evenodd" clip-rule="evenodd" d="M44.4656 39.1302V27.5986H54.2444V30.2541H47.6321V32.0572H54.0862V34.6692H47.6321V36.4402H54.2444V39.1302H44.4656Z" fill="#016FD0"/>
<path fill-rule="evenodd" clip-rule="evenodd" d="M54.1946 39.1302L59.6064 33.3564L54.1946 27.5986H58.3829L61.6892 31.2531L65.0043 27.5986H69.0117V27.6903L63.7167 33.3564L69.0117 38.965V39.1302H64.9633L61.5997 35.439L58.2684 39.1302H54.1946Z" fill="#016FD0"/>
<path fill-rule="evenodd" clip-rule="evenodd" d="M43.9381 12.8582H50.278L52.505 17.9149V12.8582H60.3317L61.6813 16.6479L63.0352 12.8582H69.0131V27.6363H37.4268L43.9381 12.8582Z" fill="#42429B"/>
<path fill-rule="evenodd" clip-rule="evenodd" d="M45.1384 14.4647L40.0222 25.9869H43.5324L44.4971 23.6797H49.7276L50.6923 25.9869H54.2896L49.1914 14.4647H45.1384ZM45.5783 21.093L47.1136 17.4248L48.6462 21.093H45.5783Z" fill="#016FD0"/>
<path fill-rule="evenodd" clip-rule="evenodd" d="M54.24 25.9853V14.4631L59.1731 14.4815L61.7116 21.5636L64.2664 14.4631H69.0135V25.9853L65.9595 26.0131V18.0969L63.0748 25.9853H60.2866L57.3423 18.0717V25.9853H54.24Z" fill="#016FD0"/>
</g>
</g>
<defs>
<clipPath id="clip0_38_495">
<rect width="52" height="52" fill="white" transform="translate(22.3918 0.658325)"/>
</clipPath>
<clipPath id="clip1_38_495">
<rect width="52" height="52" fill="white" transform="translate(22.3918 0.658325)"/>
</clipPath>
</defs>
</svg>
