<svg width="150" height="53" viewBox="0 0 150 53" fill="none" xmlns="http://www.w3.org/2000/svg">
<g clip-path="url(#clip0_38_468)">
<g clip-path="url(#clip1_38_468)">
<mask id="mask0_38_468" style="mask-type:luminance" maskUnits="userSpaceOnUse" x="31" y="13" width="88" height="28">
<path d="M118.021 13.2715H31.5919V40.0439H118.021V13.2715Z" fill="white"/>
</mask>
<g mask="url(#mask0_38_468)">
<path d="M31.5919 24.2366H37.973C39.1244 18.1568 44.4079 13.2715 51.1439 13.2715C57.8801 13.2715 64.175 18.7271 64.175 26.959C64.175 27.7214 64.089 28.5408 64.003 29.165H43.3964C44.3648 32.9097 47.4423 35.1048 51.1439 35.1048C54.8457 35.1048 56.6964 33.8673 58.5795 31.7152L62.3672 35.1908C59.8601 38.0532 56.1154 40.0332 51.1439 40.0332C46.1726 40.0332 39.1244 35.2339 37.9837 29.1541H31.5919V24.2257V24.2366ZM58.7087 24.2366C58.4397 22.6977 57.7403 21.2881 56.7288 20.2766C55.4052 18.9531 53.4683 18.1246 51.1332 18.1246C48.7981 18.1246 46.9043 18.9208 45.4946 20.3304C44.085 21.7401 43.7299 22.6224 43.3426 24.2473H58.7087V24.2366ZM68.0059 13.4437H73.5476V34.5775H83.5872V39.861H73.6336C69.975 39.861 67.9952 37.881 67.9952 34.2224V13.4437H68.0059ZM84.6418 26.6577C84.6418 19.4804 90.4956 13.2715 98.2431 13.2715C105.991 13.2715 110.478 18.1137 111.629 24.2366H118.01V29.165H111.629C110.446 35.2447 105.065 40.0439 98.2431 40.0439C90.4525 40.0439 84.6418 33.8781 84.6418 26.6577ZM98.254 34.8465C102.881 34.8465 106.314 31.3279 106.314 26.7008C106.314 22.0737 102.795 18.4688 98.254 18.4688C93.6269 18.4688 90.1942 21.9875 90.1942 26.6577C90.1942 31.3279 93.7129 34.8465 98.254 34.8465Z" fill="#003933"/>
</g>
</g>
</g>
<defs>
<clipPath id="clip0_38_468">
<rect width="105.368" height="52" fill="white" transform="translate(22.1223 0.658325)"/>
</clipPath>
<clipPath id="clip1_38_468">
<rect width="105.368" height="52" fill="white" transform="translate(22.1223 0.658325)"/>
</clipPath>
</defs>
</svg>
