<svg width="146" height="53" viewBox="0 0 146 53" fill="none" xmlns="http://www.w3.org/2000/svg">
<g clip-path="url(#clip0_38_506)">
<g clip-path="url(#clip1_38_506)">
<path d="M48.8569 15.3077C47.9806 16.3408 46.5786 17.1559 45.1764 17.0395C45.0011 15.6424 45.6875 14.1581 46.4909 13.2413C47.3671 12.1791 48.9008 11.4223 50.1423 11.3641C50.2883 12.8193 49.7186 14.2454 48.8569 15.3077ZM50.1276 17.3158C48.0974 17.1995 46.3594 18.4655 45.3954 18.4655C44.4169 18.4655 42.9418 17.3741 41.3351 17.4032C39.2466 17.4324 37.3041 18.6109 36.2379 20.4881C34.047 24.2427 35.6682 29.8015 37.786 32.8574C38.8231 34.3708 40.0645 36.0297 41.7002 35.9715C43.2484 35.9133 43.8619 34.9674 45.7314 34.9674C47.6155 34.9674 48.1559 35.9715 49.7917 35.9424C51.486 35.9133 52.5521 34.429 53.5891 32.9155C54.7721 31.1985 55.2542 29.525 55.2834 29.4377C55.2542 29.4086 52.0117 28.1716 51.9824 24.4464C51.9532 21.3322 54.5384 19.8479 54.6552 19.7606C53.1948 17.6069 50.9163 17.3741 50.1276 17.3158ZM61.8557 13.0958V35.7823H65.3903V28.0262H70.2831C74.7523 28.0262 77.8925 24.9702 77.8925 20.5464C77.8925 16.1226 74.8107 13.0958 70.3999 13.0958H61.8557ZM65.3903 16.0645H69.4651C72.5324 16.0645 74.2849 17.6942 74.2849 20.5609C74.2849 23.4277 72.5324 25.0721 69.4506 25.0721H65.3903V16.0645ZM84.3482 35.9569C86.5681 35.9569 88.6276 34.8365 89.5622 33.0611H89.6353V35.7823H92.9069V24.49C92.9069 21.2158 90.278 19.1057 86.2322 19.1057C82.4786 19.1057 79.7036 21.2449 79.6013 24.1844H82.7854C83.0483 22.7875 84.3482 21.8706 86.1301 21.8706C88.2916 21.8706 89.5038 22.8748 89.5038 24.7228V25.9743L85.093 26.2363C80.989 26.4836 78.7689 28.1571 78.7689 31.0675C78.7689 34.0069 81.0619 35.9569 84.3482 35.9569ZM85.2975 33.2649C83.4134 33.2649 82.2157 32.3627 82.2157 30.9802C82.2157 29.554 83.3696 28.7246 85.5751 28.5937L89.5038 28.3463V29.6268C89.5038 31.7515 87.6928 33.2649 85.2975 33.2649ZM97.274 41.9524C100.721 41.9524 102.342 40.6427 103.759 36.6699L109.966 19.3241H106.373L102.211 32.7265H102.138L97.9751 19.3241H94.2799L100.268 35.8405L99.9468 36.8446C99.4063 38.5473 98.5301 39.202 96.9672 39.202C96.6897 39.202 96.1493 39.173 95.9302 39.1439V41.865C96.1347 41.9233 97.0111 41.9524 97.274 41.9524Z" fill="black"/>
</g>
</g>
<defs>
<clipPath id="clip0_38_506">
<rect width="100.921" height="52" fill="white" transform="translate(22.7708 0.658325)"/>
</clipPath>
<clipPath id="clip1_38_506">
<rect width="100.921" height="52" fill="white" transform="translate(22.7708 0.658325)"/>
</clipPath>
</defs>
</svg>
