<svg width="144" height="53" viewBox="0 0 144 53" fill="none" xmlns="http://www.w3.org/2000/svg">
<g clip-path="url(#clip0_38_511)">
<g clip-path="url(#clip1_38_511)">
<mask id="mask0_38_511" style="mask-type:luminance" maskUnits="userSpaceOnUse" x="35" y="10" width="73" height="33">
<path d="M107.458 10.4077H35.0708V42.9088H107.458V10.4077Z" fill="white"/>
</mask>
<g mask="url(#mask0_38_511)">
<mask id="mask1_38_511" style="mask-type:luminance" maskUnits="userSpaceOnUse" x="29" y="4" width="85" height="41">
<path d="M29.3149 4.64722H113.223V44.579H29.3149V4.64722Z" fill="#42429B"/>
</mask>
<g mask="url(#mask1_38_511)">
<path d="M38.7308 33.7422H37.155V29.6664H38.7308C39.9579 29.6664 40.7914 30.5758 40.7914 31.6966C40.7914 32.8334 39.9579 33.7422 38.7308 33.7422ZM38.8822 27.7578H35.0945V38.8176H37.155V35.6512H38.867C41.1698 35.6512 42.8669 33.8939 42.8669 31.6966C42.8669 29.5153 41.1698 27.7578 38.8822 27.7578Z" fill="black"/>
<path d="M48.11 37.1211C46.5949 37.1211 45.4288 35.9092 45.4288 34.3639C45.4288 32.8337 46.5949 31.6371 48.11 31.6371C49.6249 31.6371 50.7614 32.864 50.7614 34.3639C50.7614 35.8942 49.6249 37.1211 48.11 37.1211ZM50.6555 31.0158C50.0191 30.2582 48.9735 29.7729 47.8074 29.7729C45.5648 29.7729 43.4136 31.455 43.4136 34.3941C43.4136 37.2882 45.6406 39 47.7767 39C48.9433 39 50.0038 38.4849 50.6555 37.6668V38.818H52.7008V29.955H50.6555V31.0158Z" fill="black"/>
<path d="M58.172 35.9244L55.7026 29.9552H53.5208L57.1571 38.3788L55.2932 42.9088H57.3692L62.6568 29.9552H60.5052L58.172 35.9244Z" fill="black"/>
<path d="M94.9911 18.8575H94.9342L92.5566 10.7369H88.7166V20.9753H91.2611L91.1182 12.5745H91.1749L93.7289 20.9753H97.4126V10.7369H94.8507L94.9911 18.8575Z" fill="black"/>
<path d="M48.4466 11.6953L48.5043 11.6944L49.8835 21.0817H52.6627L50.7558 10.7369H46.1533L44.2356 21.0817H47.0318L48.4466 11.6953Z" fill="black"/>
<path d="M61.7822 10.7369L60.5062 18.6472H60.4474L59.1732 10.7369H54.9536L54.7256 21.0817H57.315L57.3796 11.7821H57.4367L59.1648 21.0817H61.7897L63.5184 11.783L63.5756 11.7821L63.6402 21.0817H66.2279L65.9999 10.7369H61.7822Z" fill="black"/>
<path d="M38.837 21.4872C40.7089 21.4872 42.2479 20.8488 42.4937 19.1217C42.6197 18.2289 42.5272 17.6439 42.4827 17.4263C42.046 15.2599 38.1212 14.6138 37.8282 13.4023C37.779 13.1922 37.791 12.9743 37.8172 12.8585C37.8904 12.5265 38.1152 12.1639 38.7619 12.1639C39.3681 12.1639 39.7232 12.5375 39.7232 13.1013V13.7421H42.3049V13.0134C42.3049 10.7602 40.2807 10.408 38.8165 10.408C36.978 10.408 35.4738 11.0173 35.1998 12.7044C35.1248 13.1657 35.1147 13.5788 35.2235 14.0997C35.6722 16.2141 39.3486 16.825 39.8814 18.1643C39.9827 18.4144 39.9505 18.7351 39.9019 18.9293C39.8177 19.274 39.5834 19.6257 38.8941 19.6257C38.2473 19.6257 37.8547 19.2509 37.8547 18.6875L37.8522 17.6849H35.0781L35.0771 18.4823C35.0771 20.7902 36.8929 21.4872 38.837 21.4872Z" fill="black"/>
<path d="M71.4838 13.4283C71.4336 13.2217 71.4463 13.0063 71.471 12.8913C71.5443 12.5627 71.7674 12.2035 72.4066 12.2035C73.0083 12.2035 73.359 12.5721 73.359 13.1315V13.7647H75.9154V13.0445C75.9154 10.8137 73.9107 10.4653 72.4612 10.4653C70.6422 10.4653 69.1525 11.067 68.8816 12.738C68.8069 13.195 68.7965 13.6039 68.9055 14.1189C69.3484 16.2135 72.989 16.818 73.5166 18.1441C73.6156 18.3925 73.5847 18.7084 73.5361 18.9018C73.4528 19.2423 73.2214 19.5894 72.5387 19.5894C71.8976 19.5894 71.5085 19.22 71.5085 18.6608L71.5069 17.6694H68.7599L68.7593 18.459C68.7593 20.7437 70.5579 21.4332 72.4824 21.4332C74.3355 21.4332 75.8593 20.8017 76.1024 19.0913C76.2267 18.2078 76.1359 17.6291 76.0914 17.4121C75.6583 15.2669 71.7726 14.6279 71.4838 13.4283Z" fill="black"/>
<path d="M85.8328 10.7357H83.2143V18.3889C83.2153 18.5216 83.2115 18.6724 83.1898 18.7839C83.1384 19.0384 82.9172 19.5337 82.198 19.5337C81.4779 19.5337 81.2555 19.0384 81.2054 18.7839C81.1833 18.6724 81.1779 18.5216 81.1805 18.3889V10.7357H78.564V18.1531C78.559 18.3439 78.5787 18.7329 78.5879 18.834C78.7693 20.7647 80.2955 21.3903 82.198 21.3903C84.0996 21.3903 85.6259 20.7647 85.8063 18.834C85.8165 18.7329 85.8362 18.3439 85.8328 18.1531V10.7357Z" fill="black"/>
<path d="M103.798 15.2721V16.7804H104.859V18.2828C104.861 18.4136 104.856 18.5584 104.834 18.6751C104.788 18.9518 104.526 19.4262 103.777 19.4262C103.029 19.4262 102.768 18.9518 102.719 18.6752C102.699 18.5585 102.694 18.4139 102.695 18.2828V13.5534C102.695 13.385 102.707 13.2 102.737 13.0638C102.794 12.8086 103.015 12.3132 103.767 12.3132C104.559 12.3132 104.755 12.8357 104.802 13.0638C104.833 13.2129 104.834 13.4579 104.834 13.4579V14.0378H107.443V13.6931C107.443 13.6931 107.453 13.3415 107.419 13.012C107.229 11.072 105.623 10.4558 103.788 10.4558C101.953 10.4558 100.388 11.078 100.157 13.012C100.136 13.1848 100.113 13.5093 100.113 13.6931L100.113 18.0452C100.113 18.2402 100.119 18.3824 100.148 18.7264C100.321 20.6108 101.953 21.2833 103.787 21.2833C105.621 21.2833 107.255 20.6107 107.425 18.7264C107.457 18.3824 107.461 18.2402 107.463 18.0452V15.2721H103.798Z" fill="black"/>
</g>
</g>
</g>
</g>
<defs>
<clipPath id="clip0_38_511">
<rect width="99.1284" height="52" fill="white" transform="translate(22.0706 0.658325)"/>
</clipPath>
<clipPath id="clip1_38_511">
<rect width="99.1284" height="52" fill="white" transform="translate(22.0706 0.658325)"/>
</clipPath>
</defs>
</svg>
