<svg width="149" height="53" viewBox="0 0 149 53" fill="none" xmlns="http://www.w3.org/2000/svg">
<g clip-path="url(#clip0_38_477)">
<g clip-path="url(#clip1_38_477)">
<path d="M42.8872 17.3623H106.645V34.0994H42.8872V17.3623Z" fill="#42429B"/>
<path d="M68.3929 40.6148L36.1403 40.6249V40.5569C36.1403 40.5192 36.1916 40.275 36.2539 40.0145C36.3172 39.754 36.415 39.3394 36.4713 39.0933C36.5281 38.8473 36.6245 38.4291 36.6867 38.1644L36.914 37.1838C36.9783 36.9093 37.0771 36.4758 37.1354 36.2202C37.1937 35.9651 37.2906 35.5469 37.3513 35.2913C37.5047 34.6438 37.6549 33.9957 37.802 33.3471C37.8583 33.1012 37.9477 32.7219 38.0006 32.5043C38.0535 32.2866 38.1212 31.9925 38.1508 31.8505C38.1805 31.7085 38.2758 31.2908 38.3633 30.9214C38.4508 30.5527 38.5471 30.1345 38.5778 29.9925C38.6084 29.8504 38.7052 29.4326 38.7932 29.0634C38.8812 28.6947 38.9779 28.2768 39.0082 28.1344C39.0378 27.9924 39.1352 27.5747 39.224 27.2055C39.3124 26.8366 39.4079 26.4262 39.4365 26.2939C39.4921 26.0411 39.5493 25.7887 39.6085 25.5366C39.6747 25.2526 39.8006 24.7186 39.8876 24.3497C39.9746 23.9805 40.1238 23.3382 40.2187 22.9218C40.3603 22.3022 40.5032 21.6829 40.6471 21.0638L40.8606 20.1522C41.0128 19.5043 41.1638 18.856 41.3132 18.2076C41.3694 17.9621 41.4654 17.5517 41.5267 17.2962C41.5878 17.0409 41.6937 16.5916 41.7609 16.2985C41.8387 15.9646 41.9225 15.6319 42.0124 15.3004C42.0831 15.0448 42.1828 14.7354 42.2347 14.6122C42.2861 14.4894 42.4279 14.2228 42.5505 14.0196L42.7728 13.6508L42.975 13.4175C43.0856 13.2895 43.2843 13.0867 43.4157 12.9674C43.5725 12.8272 43.7369 12.6938 43.9083 12.5676C44.0476 12.4675 44.2493 12.332 44.3569 12.2669C44.4642 12.2018 44.6752 12.0878 44.8254 12.0135C44.9756 11.9392 45.1861 11.8422 45.2939 11.7976C45.401 11.753 45.621 11.6718 45.782 11.6172C45.9431 11.5621 46.2505 11.4703 46.4648 11.4127C46.7604 11.3379 47.0593 11.2737 47.3608 11.2204C47.6384 11.1719 48.0771 11.1068 48.3367 11.0762L48.807 11.0207L81.0795 11.0098L113.352 10.9993V11.0674C113.352 11.105 113.3 11.3488 113.237 11.6093C113.174 11.8702 113.068 12.3159 113.002 12.5995C112.936 12.8835 112.84 13.2938 112.788 13.5115C112.737 13.7291 112.638 14.1468 112.571 14.4405L112.338 15.4381C112.279 15.6937 112.182 16.1115 112.123 16.3671C112.065 16.6227 111.967 17.0404 111.907 17.2962C111.846 17.5517 111.752 17.9542 111.698 18.1906L111.48 19.1371C111.414 19.4211 111.309 19.8698 111.246 20.1347C111.182 20.3994 111.086 20.8102 111.031 21.0466L110.814 21.9927C110.748 22.2768 110.643 22.7256 110.579 22.9908C110.508 23.2888 110.439 23.5869 110.37 23.8853L110.153 24.8313C110.011 25.4452 109.868 26.0588 109.725 26.6724C109.662 26.9371 109.555 27.3938 109.487 27.6873C109.419 27.9801 109.322 28.3988 109.27 28.6164L109.058 29.528C108.993 29.8119 108.888 30.2607 108.826 30.5261L108.61 31.455L108.39 32.401L108.158 33.3991L107.946 34.3107L107.731 35.2396C107.666 35.5237 107.559 35.9708 107.495 36.2338L107.377 36.7119L107.237 37.0421C107.16 37.2244 107.044 37.466 106.98 37.5793C106.811 37.8672 106.614 38.1414 106.39 38.3985C106.322 38.4729 106.119 38.6647 105.938 38.8251L105.609 39.1161L105.292 39.3145C105.118 39.4237 104.93 39.5347 104.875 39.5613C104.82 39.5876 104.61 39.6825 104.408 39.7712C104.202 39.8624 103.991 39.9464 103.776 40.0228C103.564 40.0912 103.349 40.1535 103.132 40.2094C102.924 40.2627 102.701 40.3156 102.637 40.326C102.573 40.337 102.349 40.378 102.14 40.4169C101.931 40.4558 101.51 40.514 101.203 40.5463L100.646 40.6049L68.3929 40.6148ZM56.9179 33.2614H57.7575L57.7813 33.2069C57.794 33.1766 57.8049 33.1064 57.8049 33.0504C57.8049 32.9945 57.8326 32.7904 57.8662 32.5972C57.8998 32.4042 57.9793 31.9597 58.0425 31.6097C58.1059 31.2597 58.2007 30.7331 58.2526 30.4399C58.3051 30.1468 58.3692 29.7713 58.3949 29.6053C58.4206 29.4397 58.4522 29.3042 58.465 29.3042C58.4774 29.3042 58.5318 29.3776 58.5857 29.4671L58.6829 29.6298L58.8994 29.822L59.1158 30.0142L59.3827 30.1079L59.6485 30.2018L59.9662 30.238L60.2834 30.2743L60.6867 30.2528L61.0893 30.2311L61.5256 30.1315L61.9619 30.0317L62.1962 29.9374C62.3247 29.8858 62.5535 29.7727 62.7036 29.6867L62.9769 29.5292L63.2318 29.3052C63.3717 29.1819 63.5693 28.9839 63.6707 28.8655C63.7725 28.7467 63.8553 28.6413 63.8553 28.6309C63.8553 28.6199 63.9048 28.5469 63.9661 28.4673C64.0269 28.3887 64.1514 28.1689 64.2428 27.9798C64.3342 27.7905 64.477 27.4497 64.5605 27.223L64.7118 26.8099L64.7898 26.4521C64.8328 26.2554 64.8886 25.9304 64.9128 25.7298L64.9573 25.3648L64.9316 25.055L64.9059 24.7452L64.8244 24.4359L64.7428 24.1261L64.6109 23.8945L64.4795 23.6624L64.2245 23.4243L63.9701 23.1865L63.6686 23.0494L63.3672 22.9117L63.0356 22.8417L62.7036 22.7719L62.3721 22.75L62.0401 22.729L61.6704 22.7662L61.3009 22.8037L60.9994 22.8715L60.6975 22.9397L60.4356 23.0462C60.2755 23.1126 60.1199 23.1867 59.9692 23.2683C59.8796 23.317 59.7937 23.371 59.7122 23.4299C59.6826 23.4561 59.6129 23.5034 59.5565 23.5362L59.4538 23.5951L59.5255 23.2927C59.565 23.1266 59.5981 22.9711 59.5991 22.9475L59.6005 22.9047H58.1691L58.0436 23.6012C57.8963 24.4191 57.7439 25.2362 57.5865 26.0526L57.3721 27.1713C57.3079 27.5022 57.2027 28.0286 57.1374 28.3411C56.9162 29.4021 56.694 30.463 56.4709 31.5237C56.4066 31.8264 56.3013 32.3067 56.2375 32.5903C56.1939 32.7884 56.148 32.9863 56.1003 33.1837L56.0785 33.2614H56.9179ZM60.5314 29.2833L60.2054 29.3007L59.9924 29.267L59.7795 29.2339L59.563 29.147L59.3466 29.06L59.1954 28.9328L59.0442 28.8056L58.9573 28.6334C58.9012 28.5178 58.8555 28.3985 58.8203 28.2765L58.7704 28.0912L58.7902 27.7945L58.8099 27.4982L58.9108 27.0337C58.9661 26.7781 59.0654 26.2983 59.1317 25.9671C59.1974 25.6359 59.2976 25.1504 59.354 24.8886L59.4558 24.4123L59.6796 24.2484C59.8165 24.1494 59.9613 24.0595 60.1129 23.9793L60.3225 23.8743L60.5957 23.8001L60.869 23.7257L61.2202 23.7074L61.5716 23.689L61.8578 23.7429L62.1438 23.7966L62.3459 23.8787L62.5475 23.9605L62.717 24.1107L62.8859 24.2607L62.9773 24.4192C63.0278 24.5067 63.0984 24.6779 63.134 24.7994L63.1997 25.0205L63.18 25.6743L63.1596 26.3279L63.0594 26.7148C63.0041 26.927 62.8993 27.2521 62.8262 27.4369L62.6928 27.7735L62.5301 28.0453C62.4408 28.1952 62.3029 28.3975 62.2233 28.4949C62.1442 28.5924 62.0179 28.7187 61.9427 28.7755C61.8671 28.8323 61.7416 28.9215 61.663 28.973L61.5198 29.0674L61.1887 29.1665L60.8576 29.2658L60.5314 29.2833ZM68.637 30.2289L69.0669 30.2333L69.4958 30.1988C69.732 30.1799 70.1184 30.1402 70.3546 30.1108C70.6585 30.0707 70.9609 30.022 71.2612 29.9649L71.7385 29.8727L71.7623 29.7175C71.7751 29.6324 71.829 29.3784 71.8808 29.1534L71.9768 28.7445L71.9555 28.7256L71.9347 28.7073L71.7885 28.7694C71.6065 28.837 71.4212 28.8974 71.233 28.9503L70.824 29.0691L70.3941 29.1425L69.9642 29.216L69.2813 29.2172L68.5979 29.2182L68.3637 29.1526C68.2202 29.111 68.0795 29.0617 67.9427 29.0048L67.756 28.9237L67.6019 28.8008L67.4476 28.678L67.3271 28.4927L67.207 28.3075L67.1315 28.075L67.0563 27.8421L67.0559 27.412L67.0549 26.9817L67.1221 26.598L67.1887 26.2143L67.7768 26.1904L68.3637 26.1658L70.5355 26.1781L72.7065 26.1904L72.7722 25.9456C72.8224 25.7406 72.8632 25.5339 72.8948 25.3261L72.9517 24.952L72.9527 24.6373L72.9541 24.3226L72.8923 24.0872L72.8301 23.8526L72.7283 23.6969C72.663 23.6001 72.5895 23.5079 72.508 23.4211C72.4303 23.3447 72.3443 23.2754 72.251 23.2141C72.1429 23.1498 72.031 23.0904 71.916 23.0362L71.7207 22.9445L71.3799 22.8723L71.0389 22.7998L70.619 22.7643L70.1989 22.729L69.8086 22.751L69.4182 22.7736L68.9493 22.8531L68.4808 22.9322L68.1884 23.0354C68.0273 23.0921 67.7812 23.1958 67.6419 23.2656C67.502 23.3351 67.3088 23.4487 67.212 23.5177C67.0834 23.6124 66.9594 23.7119 66.8405 23.8159C66.7111 23.9337 66.5928 24.0606 66.4861 24.1951C66.3991 24.3087 66.2653 24.5097 66.1897 24.6422C66.1131 24.7745 66.0137 24.9602 65.9687 25.055C65.9238 25.1499 65.8417 25.3434 65.7869 25.485C65.7316 25.627 65.6451 25.8981 65.5942 26.0871C65.5346 26.3164 65.4833 26.5473 65.4401 26.7794L65.3778 27.1276V27.6397L65.3788 28.1519L65.438 28.3751C65.4707 28.4984 65.5329 28.6842 65.5764 28.7882C65.6204 28.8926 65.701 29.0472 65.7559 29.1325C65.8112 29.2177 65.9287 29.3545 66.0167 29.437C66.1057 29.5196 66.2658 29.6446 66.3729 29.715C66.4802 29.7853 66.6714 29.8846 66.7979 29.9351L67.0272 30.027L67.3474 30.0956C67.5232 30.1327 67.7886 30.1773 67.9373 30.1944C68.0861 30.2109 68.4008 30.2267 68.637 30.2289ZM69.3722 25.3818C68.2916 25.3818 67.4076 25.3749 67.4076 25.3666C67.4076 25.3584 67.4536 25.2386 67.51 25.1001C67.5663 24.9621 67.6651 24.7558 67.7298 24.6425L67.8474 24.4367L68.1058 24.2099L68.3637 23.984L68.6178 23.877C68.7571 23.8179 68.9414 23.7542 69.0279 23.7345C69.1133 23.7153 69.359 23.6895 69.5739 23.6773L69.9642 23.6554L70.2641 23.689L70.5637 23.7232L70.7814 23.811L70.9994 23.8989L71.119 24.0125C71.1847 24.0749 71.2633 24.1671 71.2929 24.2169L71.3473 24.3078L71.3838 24.5093L71.4195 24.7112L71.3783 25.0464L71.3374 25.3818H69.3722ZM81.0508 30.2293L81.4802 30.2333L81.9679 30.1825C82.2334 30.155 82.4981 30.1205 82.7614 30.0795C82.9294 30.0505 83.2017 29.9933 83.3662 29.9526C83.5312 29.9117 83.68 29.8671 83.6973 29.854C83.7146 29.8408 83.7616 29.6848 83.8005 29.507C83.8401 29.3296 83.89 29.091 83.9113 28.9774C83.9325 28.8638 83.9434 28.765 83.9354 28.7576C83.9275 28.7502 83.8988 28.7598 83.8717 28.779C83.844 28.7982 83.6529 28.869 83.4458 28.9367L83.0703 29.06L82.5347 29.1512L81.9996 29.2431L81.5445 29.229L81.0893 29.2155L80.8308 29.1364L80.5724 29.0573L80.3729 28.903L80.1728 28.7492L80.0403 28.5365L79.9079 28.3236L79.8447 28.0397L79.7818 27.7548V27.3854L79.7823 27.0162L79.8589 26.5692L79.9361 26.1217L80.0171 25.8809C80.0615 25.7485 80.112 25.5935 80.1293 25.5366C80.146 25.4799 80.2177 25.3172 80.2883 25.1757C80.3586 25.0336 80.4845 24.8143 80.5675 24.688L80.7183 24.4586L80.9041 24.289L81.0899 24.1195L81.2861 24.012L81.4827 23.9049L81.7352 23.8363C81.9142 23.7905 82.0962 23.7539 82.2802 23.7271L82.5731 23.6873L83.0025 23.7062L83.4319 23.7254L83.9395 23.8149L84.4469 23.9046L84.653 23.9722C84.7666 24.0094 84.8644 24.0399 84.8703 24.0399C84.8767 24.0399 84.904 23.9123 84.9311 23.756C84.9648 23.5653 85.0008 23.3751 85.0389 23.1852C85.0704 23.028 85.0892 22.8915 85.0799 22.8838C85.0704 22.875 84.9177 22.8535 84.7409 22.8357C84.3849 22.8061 84.0285 22.7828 83.6716 22.7658L82.9245 22.7278L82.3973 22.7636L81.8705 22.799L81.4802 22.8715L81.0899 22.9435L80.8384 23.0322C80.7 23.0812 80.4974 23.169 80.3882 23.2276C80.279 23.2866 80.1402 23.3657 80.0793 23.4033C80.0185 23.4413 79.8343 23.5889 79.6696 23.7314L79.3707 23.9911L79.2037 24.2065C79.1118 24.3248 78.9533 24.5722 78.8509 24.7558L78.6651 25.0895L78.5223 25.4505C78.4443 25.6494 78.3347 25.975 78.2792 26.1733L78.1785 26.5347L78.142 26.8615L78.1054 27.1884L78.1059 27.6183V28.0483L78.1429 28.2987L78.1799 28.5491L78.297 28.8064L78.4136 29.0639L78.5491 29.2495L78.684 29.4358L78.8985 29.6224L79.1134 29.8085L79.3406 29.9142L79.5679 30.0199L79.8658 30.093C80.0305 30.1332 80.2677 30.1795 80.3931 30.1956C80.5187 30.2119 80.8146 30.2271 81.0508 30.2293ZM87.4719 30.2166L87.9986 30.203L88.3306 30.1283L88.6622 30.0536L88.8771 29.964C88.9953 29.9147 89.1885 29.8176 89.3065 29.7483C89.4247 29.6783 89.607 29.5462 89.7127 29.4545C89.818 29.3628 89.9742 29.2054 90.0596 29.1058C90.1451 29.0058 90.2201 28.9284 90.2266 28.9341C90.2331 28.9397 90.2132 29.0989 90.1826 29.288C90.1527 29.4731 90.1341 29.6595 90.1268 29.8464L90.1262 30.0615H91.5587L91.581 29.5711L91.6027 29.0809L91.705 28.4443C91.7614 28.0942 91.8523 27.5756 91.9067 27.2915C92.0442 26.5854 92.1872 25.8801 92.335 25.1757L92.4397 24.6767L92.4437 24.2457L92.4472 23.8144L92.3365 23.6157L92.2258 23.4164L92.0761 23.2897L91.9259 23.163L91.6798 23.0529L91.4338 22.9427L91.0671 22.871L90.7 22.799L90.1949 22.7648L89.6901 22.7313L89.0397 22.7666C88.682 22.7862 88.1784 22.8247 87.9205 22.8523L87.4522 22.9025L87.1329 22.9033L86.8137 22.9047L86.7673 23.1027C86.7415 23.2111 86.6709 23.4697 86.6096 23.6769C86.5483 23.8839 86.5039 24.0587 86.5108 24.0648C86.5177 24.071 86.6887 24.0365 86.8902 23.9889C87.0919 23.9408 87.5202 23.8622 87.8425 23.8141L88.428 23.7257L88.9553 23.707L89.4819 23.6877L89.8215 23.7402L90.1609 23.7927L90.3876 23.891L90.6139 23.9897L90.7409 24.1562L90.8679 24.3231L90.866 24.5858L90.864 24.8488L90.7969 25.1373L90.7296 25.4256L89.3253 25.4301L87.9205 25.4343L87.461 25.5454C87.2081 25.6065 86.9284 25.6879 86.8389 25.7258C86.7495 25.7638 86.66 25.7948 86.6403 25.7948C86.6205 25.7948 86.4698 25.8683 86.3058 25.9583L86.0078 26.1217L85.773 26.3279C85.6441 26.4415 85.4792 26.612 85.4065 26.7069C85.3068 26.8471 85.2195 26.994 85.1451 27.1461L85.0151 27.413L84.9554 27.7136L84.8955 28.0143V28.6444L84.9524 28.907L85.0097 29.1692L85.1155 29.3405C85.1733 29.4348 85.28 29.5729 85.3521 29.6473L85.4836 29.7828L85.7173 29.9077L85.9505 30.0327L86.2179 30.099C86.365 30.1357 86.5883 30.1803 86.7149 30.1978L86.9451 30.2297L87.4719 30.2166ZM87.9596 29.2544L87.6472 29.2688L87.4408 29.2224C87.3086 29.1909 87.18 29.1485 87.0568 29.0957L86.8805 29.0158L86.7836 28.9144C86.7155 28.8386 86.6553 28.7574 86.6038 28.6719L86.5196 28.5304L86.5034 28.1996L86.4872 27.8687L86.5533 27.6678C86.5899 27.5576 86.6748 27.3662 86.7431 27.2425L86.8666 27.0175L87.1033 26.8104L87.34 26.6032L87.5915 26.4967L87.8425 26.39L88.1548 26.3245L88.4669 26.2589H90.4188L90.4806 26.2816L90.5424 26.3044L90.4904 26.5744C90.4619 26.723 90.3936 26.9913 90.3388 27.171C90.2844 27.3509 90.1875 27.6153 90.1243 27.7582C90.0812 27.8504 90.0427 27.9443 90.0091 28.0397C90.0091 28.0513 89.945 28.1558 89.8664 28.2716L89.7241 28.4828L89.4899 28.6871C89.3609 28.7995 89.2413 28.8917 89.2239 28.8917C89.2068 28.8917 89.1281 28.9301 89.0486 28.9777L88.9049 29.0634L88.5886 29.1517L88.2719 29.2399L87.9596 29.2544ZM100.666 30.2289L101.036 30.2328L101.388 30.1825C101.581 30.155 101.827 30.1104 101.934 30.0837C102.041 30.0566 102.235 29.9876 102.364 29.9292L102.598 29.8233L102.799 29.6673L103.001 29.511L103.213 29.2614C103.33 29.1241 103.435 28.9887 103.448 28.9604L103.471 28.9087L103.451 29.0809C103.44 29.1753 103.416 29.3301 103.397 29.4248C103.378 29.5196 103.351 29.7015 103.337 29.8291L103.311 30.0615H104.843V29.597L104.959 28.7196C105.023 28.2366 105.118 27.5944 105.17 27.2915C105.222 26.9886 105.302 26.5551 105.348 26.3279C105.394 26.1007 105.475 25.6908 105.528 25.4165C105.582 25.142 105.679 24.6617 105.743 24.3497C105.808 24.0374 105.911 23.5418 105.973 23.2486L106.186 22.2335C106.241 21.9687 106.341 21.5042 106.408 21.2014C106.473 20.8985 106.57 20.4729 106.622 20.2553C106.674 20.0377 106.716 19.8481 106.716 19.8336V19.8079H105.045L105.021 20.0228C105.007 20.1409 104.943 20.5323 104.878 20.892C104.814 21.2511 104.709 21.8241 104.644 22.1649L104.507 22.8991L104.486 23.0135L104.42 22.989C104.276 22.9486 104.13 22.9128 103.983 22.8819L103.613 22.7998L103.105 22.7648L102.598 22.7298L102.168 22.7658L101.739 22.8007L101.349 22.888L100.958 22.9746L100.587 23.1342L100.217 23.2936L99.9435 23.4719L99.6703 23.6502L99.4341 23.873C99.2855 24.0161 99.1465 24.1668 99.0174 24.324L98.8367 24.552L98.6246 24.9409C98.508 25.1551 98.3657 25.4387 98.309 25.5711C98.2239 25.7855 98.1495 26.0033 98.086 26.2236L97.9664 26.6357L97.9076 27.17L97.8489 27.7045L97.8933 28.1344L97.9372 28.5644L97.9897 28.7196C98.0184 28.8047 98.0791 28.9564 98.1241 29.0565L98.2065 29.2391L98.3569 29.4183L98.507 29.5975L98.679 29.7215L98.8504 29.8452L99.0847 29.9479C99.2136 30.0043 99.4295 30.0773 99.565 30.1096C99.7004 30.1424 99.9197 30.1816 100.053 30.197C100.186 30.2123 100.462 30.2267 100.666 30.2289ZM101.331 29.2527L101.036 29.2662L100.837 29.2347C100.704 29.2111 100.574 29.1766 100.448 29.1317L100.258 29.0595L100.098 28.9442L99.9385 28.8283L99.8195 28.6273L99.7004 28.4271L99.6465 28.2035L99.5921 27.9798L99.5965 27.5323L99.6016 27.0852L99.6643 26.6894L99.727 26.2939L99.8249 26.0186C99.8787 25.867 99.9232 25.7241 99.9232 25.7009C99.9237 25.6778 99.9771 25.5541 100.041 25.4256C100.106 25.2975 100.214 25.0996 100.282 24.986C100.349 24.8724 100.474 24.6959 100.561 24.5927C100.647 24.4901 100.801 24.3349 100.903 24.2489C101.005 24.1624 101.167 24.0491 101.263 23.9967L101.438 23.9024L101.745 23.8083L102.051 23.7148H103.34L103.711 23.8053C103.914 23.8551 104.131 23.9128 104.192 23.9337L104.302 23.9719L104.28 24.0662C104.245 24.2348 104.21 24.4039 104.178 24.573C104.046 25.2336 103.909 25.8932 103.766 26.5517C103.713 26.794 103.654 27.035 103.587 27.2745C103.544 27.4165 103.484 27.6126 103.453 27.7114C103.409 27.8408 103.354 27.9673 103.289 28.0899C103.222 28.2124 103.145 28.3307 103.059 28.4439C102.984 28.5376 102.899 28.6254 102.806 28.7061C102.697 28.7905 102.582 28.8684 102.461 28.9393L102.246 29.0652L101.936 29.1522L101.626 29.2387L101.331 29.2527ZM43.8806 30.0611H44.8293L44.8971 29.6914C44.9346 29.4881 45.0077 29.0972 45.0596 28.8227L45.2745 27.6873C45.3408 27.3374 45.4396 26.8186 45.4949 26.5347C45.5498 26.2506 45.6372 25.8106 45.6891 25.5558C45.7411 25.3019 45.7934 25.0848 45.8052 25.0743L45.8274 25.055H50.9278L50.9564 25.0799L50.9846 25.1048L50.9401 25.3037C50.9159 25.4129 50.8443 25.7502 50.7805 26.0531L50.5429 27.1884C50.4756 27.5101 50.3788 27.9666 50.3275 28.2035C50.2755 28.4399 50.1718 28.9355 50.0957 29.3047C50.02 29.6734 49.9578 29.995 49.9583 30.0182V30.0615H51.8632L51.9056 29.8464C51.9289 29.7281 51.9659 29.5152 51.9882 29.3732C52.0252 29.1493 52.0652 28.9257 52.1082 28.7024C52.1517 28.4752 52.2392 28.0261 52.3019 27.7045C52.3646 27.3829 52.4699 26.8331 52.5356 26.4831C52.6013 26.133 52.6987 25.6223 52.7526 25.3473C52.806 25.073 52.9013 24.6089 52.964 24.3152C53.1175 23.599 53.2677 22.8822 53.4147 22.1649L53.634 21.0983C53.7007 20.7767 53.7848 20.4009 53.8208 20.2636L53.8871 20.0145H51.9585L51.9317 20.1779C51.9176 20.2676 51.8711 20.5192 51.8285 20.7373C51.786 20.9544 51.7089 21.3416 51.6566 21.5972C51.6048 21.8525 51.5099 22.3402 51.4456 22.681C51.3813 23.0218 51.2999 23.4723 51.2638 23.683L51.199 24.0658L49.7834 24.0911L48.3677 24.116L47.1818 24.0915C46.5296 24.0781 45.993 24.064 45.9886 24.0609C45.984 24.0574 46.0063 23.9238 46.0379 23.7639C46.0696 23.6034 46.1289 23.325 46.1705 23.1455C46.2119 22.9654 46.2905 22.6098 46.3454 22.3542C46.3997 22.0984 46.4613 21.7812 46.4821 21.6489C46.5034 21.5163 46.5474 21.2957 46.58 21.1585C46.6126 21.0214 46.6749 20.7321 46.7184 20.5162C46.7614 20.3003 46.8074 20.0988 46.8201 20.0687L46.8444 20.0145H44.9307L44.8694 20.3156C44.8358 20.4812 44.7907 20.7171 44.7696 20.84C44.7483 20.9633 44.6771 21.3578 44.6114 21.7174C44.5452 22.077 44.4483 22.6115 44.3951 22.9047L44.1811 24.0915C44.1158 24.4512 44.0087 25.0087 43.943 25.3303C43.8766 25.6519 43.7813 26.1086 43.7304 26.3454L43.5155 27.343C43.4477 27.6555 43.3494 28.0969 43.2966 28.3236C43.2436 28.5508 43.1849 28.814 43.1666 28.9087C43.1478 29.0036 43.0876 29.2763 43.0322 29.5152C42.9769 29.7539 42.932 29.975 42.932 30.0056V30.0615L43.8806 30.0611ZM54.3806 30.0611H55.2202L55.2438 30.0068C55.2608 29.9498 55.2689 29.891 55.2676 29.8321C55.2676 29.7665 55.3199 29.423 55.3847 29.0696C55.5324 28.2642 55.6832 27.4593 55.8374 26.6549C55.8907 26.3809 55.9846 25.9237 56.0468 25.6401C56.1091 25.3562 56.2044 24.9148 56.2592 24.6592C56.3136 24.4039 56.4204 23.9181 56.4966 23.5793C56.5731 23.2407 56.6452 22.9501 56.6571 22.9336L56.6784 22.903L55.8289 22.9126L54.98 22.9218L54.9095 23.3691C54.8704 23.6153 54.7859 24.103 54.7202 24.4529L54.5018 25.6401C54.4463 25.9425 54.3505 26.4307 54.2878 26.7239L54.0752 27.7215C53.9419 28.3414 53.8048 28.9609 53.6637 29.5795C53.6222 29.7596 53.5773 29.9413 53.5649 29.9842L53.5406 30.0615L54.3806 30.0611ZM74.018 30.0611H74.8516L74.8762 29.7508C74.8901 29.5795 74.9375 29.2352 74.9815 28.9848C75.0249 28.7349 75.1149 28.2362 75.1811 27.8766C75.2468 27.517 75.3694 26.9184 75.4529 26.5465C75.5369 26.1751 75.6318 25.8049 75.6639 25.7249C75.6961 25.645 75.7222 25.559 75.7222 25.5326C75.7222 25.5065 75.7845 25.3653 75.861 25.2184C75.954 25.046 76.0601 24.8793 76.1782 24.7194L76.3561 24.4865L76.5942 24.2925L76.8325 24.0981L77.1265 23.9744L77.4199 23.8507L77.8692 23.8529L78.3178 23.8551L78.5387 23.9132C78.6598 23.9451 78.7699 23.9714 78.7823 23.9714C78.7951 23.9714 78.806 23.9347 78.806 23.8901C78.806 23.845 78.8495 23.6187 78.9034 23.3863C78.9573 23.1537 79.0012 22.9541 79.0012 22.9422C79.0012 22.93 78.8737 22.8863 78.7181 22.8444C78.5613 22.8023 78.4015 22.77 78.2398 22.7473L78.0446 22.7259L77.791 22.7658C77.6513 22.7875 77.4437 22.8357 77.3296 22.8723C77.2159 22.9095 77.0271 22.993 76.9111 23.0585C76.7684 23.1428 76.6341 23.2379 76.5098 23.3425C76.3695 23.4698 76.2388 23.6052 76.1185 23.7476L75.8615 24.0574L75.8062 24.1261L75.8398 23.9884C75.8585 23.9128 75.9105 23.665 75.9554 23.4378C75.9999 23.2106 76.0464 22.9977 76.0577 22.9649L76.0785 22.9047H74.5902V22.9878C74.5902 23.0332 74.5458 23.308 74.4923 23.5982C74.4385 23.8883 74.35 24.3738 74.2957 24.6767C74.2413 24.9794 74.1444 25.506 74.0808 25.8464C74.0165 26.1872 73.9202 26.6749 73.8653 26.9302C73.6632 27.8759 73.4547 28.8208 73.2398 29.7643C73.2177 29.8526 73.1994 29.9415 73.1849 30.031V30.0615L74.018 30.0611ZM93.802 30.0611H94.6545V29.6022L94.7522 29.0319C94.8065 28.7182 94.8956 28.2218 94.9504 27.9286C95.0052 27.6353 95.0739 27.2636 95.1026 27.1027C95.1313 26.942 95.2072 26.5936 95.2715 26.3284C95.3358 26.0637 95.4164 25.7774 95.4504 25.6921C95.484 25.607 95.5122 25.5174 95.5122 25.4934C95.5126 25.4693 95.5853 25.3146 95.6738 25.1499L95.8349 24.8502L96.0468 24.6015L96.2592 24.3529L96.4915 24.1991C96.619 24.1146 96.8246 24.0024 96.9477 23.9499L97.1719 23.8538L97.6601 23.8568L98.1478 23.86L98.34 23.9142L98.5323 23.9682L98.5644 23.9509L98.597 23.9334L98.5984 23.8237C98.5994 23.7629 98.641 23.5384 98.6914 23.3242L98.7823 22.9344L98.6801 22.8994C98.5816 22.8672 98.4822 22.8371 98.3821 22.8094L98.1869 22.7552L97.8355 22.7562L97.4842 22.7569L97.1981 22.8457L96.9116 22.9344L96.6967 23.0489L96.4817 23.163L96.202 23.4208L95.9228 23.6791L95.7726 23.8797C95.6901 23.9893 95.6174 24.0744 95.611 24.0688C95.6047 24.0626 95.6496 23.8329 95.7109 23.5588C95.7722 23.2845 95.8224 23.0248 95.8235 22.9824L95.8254 22.9051H94.3811V22.927C94.3811 22.9393 94.345 23.1594 94.301 23.4173C94.2571 23.6751 94.1687 24.172 94.1044 24.5224C94.0407 24.8719 93.9355 25.4375 93.8712 25.7783C93.807 26.1191 93.7101 26.6064 93.6558 26.8619C93.585 27.1946 93.5138 27.5271 93.4418 27.8596C93.3786 28.1533 93.2743 28.6252 93.2101 28.9092L93.0218 29.7438L92.9497 30.062L93.802 30.0611ZM56.0316 21.6649L56.2687 21.6659L56.4565 21.609L56.6452 21.5527L56.8117 21.4037L56.9787 21.2546L57.0667 21.0559L57.1541 20.8575L57.1576 20.5647L57.1606 20.2723L57.0826 20.1584L57.0044 20.0443L56.8686 19.9699L56.7328 19.8957H56.1456L55.946 19.9743L55.7459 20.0529L55.6304 20.1626L55.5142 20.2723L55.4233 20.4615L55.3319 20.6508L55.3146 20.9458L55.2977 21.2407L55.3822 21.3871L55.4673 21.5335L55.6308 21.5991L55.7944 21.6646L56.0316 21.6649Z" fill="#B3131B"/>
</g>
</g>
<defs>
<clipPath id="clip0_38_477">
<rect width="104" height="52" fill="white" transform="translate(22.8694 0.658325)"/>
</clipPath>
<clipPath id="clip1_38_477">
<rect width="104" height="52" fill="white" transform="translate(22.8694 0.658325)"/>
</clipPath>
</defs>
</svg>
