<svg width="21" height="21" viewBox="0 0 21 21" fill="none" xmlns="http://www.w3.org/2000/svg">
<path fill-rule="evenodd" clip-rule="evenodd" d="M10.2197 3.04258C6.01387 3.04258 2.60435 6.4521 2.60435 10.658C2.60435 14.8639 6.01387 18.2734 10.2197 18.2734C14.4256 18.2734 17.8351 14.8639 17.8351 10.658C17.8351 6.4521 14.4256 3.04258 10.2197 3.04258ZM1.21973 10.658C1.21973 5.6874 5.24917 1.65796 10.2197 1.65796C15.1903 1.65796 19.2197 5.6874 19.2197 10.658C19.2197 15.6286 15.1903 19.658 10.2197 19.658C5.24917 19.658 1.21973 15.6286 1.21973 10.658Z" fill="#555555"/>
<path fill-rule="evenodd" clip-rule="evenodd" d="M10.2197 15.033C9.80552 15.033 9.46973 14.6972 9.46973 14.283V10.283C9.46973 9.86875 9.80552 9.53296 10.2197 9.53296C10.6339 9.53296 10.9697 9.86875 10.9697 10.283V14.283C10.9697 14.6972 10.6339 15.033 10.2197 15.033Z" fill="#555555"/>
<path d="M9.21973 7.28296C9.21973 6.73068 9.66745 6.28296 10.2197 6.28296C10.772 6.28296 11.2197 6.73068 11.2197 7.28296C11.2197 7.83524 10.772 8.28296 10.2197 8.28296C9.66745 8.28296 9.21973 7.83524 9.21973 7.28296Z" fill="#555555"/>
</svg>
