<svg width="16" height="13" viewBox="0 0 16 13" fill="none" xmlns="http://www.w3.org/2000/svg">
<path d="M15.6881 4.98569V9.40863C15.6881 10.1907 15.3685 10.9406 14.7996 11.4936C14.2307 12.0466 13.4591 12.3573 12.6545 12.3573H3.55383C2.74928 12.3573 1.97768 12.0466 1.40878 11.4936C0.839871 10.9406 0.520264 10.1907 0.520264 9.40863V4.98569H15.6881ZM4.31981 7.93432H4.31222C4.21263 7.9348 4.11411 7.95435 4.02229 7.99184C3.93047 8.02933 3.84714 8.08404 3.77707 8.15283C3.63556 8.29176 3.55662 8.47965 3.55762 8.67516C3.55812 8.77196 3.57823 8.86772 3.6168 8.95697C3.65538 9.04623 3.71166 9.12722 3.78243 9.19533C3.85321 9.26344 3.93709 9.31733 4.0293 9.35393C4.1215 9.39053 4.22021 9.40911 4.31981 9.40863C4.52095 9.40863 4.71385 9.33097 4.85607 9.19272C4.9983 9.05448 5.0782 8.86698 5.0782 8.67147C5.0782 8.47597 4.9983 8.28847 4.85607 8.15022C4.71385 8.01198 4.52095 7.93432 4.31981 7.93432ZM8.86258 7.93432H7.34579C7.14465 7.93432 6.95175 8.01198 6.80953 8.15022C6.6673 8.28847 6.5874 8.47597 6.5874 8.67147C6.5874 8.86698 6.6673 9.05448 6.80953 9.19272C6.95175 9.33097 7.14465 9.40863 7.34579 9.40863H8.86258C9.06371 9.40863 9.25661 9.33097 9.39884 9.19272C9.54107 9.05448 9.62097 8.86698 9.62097 8.67147C9.62097 8.47597 9.54107 8.28847 9.39884 8.15022C9.25661 8.01198 9.06371 7.93432 8.86258 7.93432ZM12.6545 0.562744C13.4591 0.562744 14.2307 0.873402 14.7996 1.42638C15.3685 1.97935 15.6881 2.72935 15.6881 3.51137H0.520264C0.520264 2.72935 0.839871 1.97935 1.40878 1.42638C1.97768 0.873402 2.74928 0.562744 3.55383 0.562744H12.6545Z" fill="white"/>
</svg>
