<svg width="15" height="12" viewBox="0 0 15 12" fill="none" xmlns="http://www.w3.org/2000/svg">
<path d="M0.822662 4.59415H13.4021M3.6181 8.08845H3.62509M6.41354 8.08845H7.81126M0.822662 3.19643C0.822662 2.64039 1.04355 2.10711 1.43674 1.71393C1.82992 1.32074 2.36319 1.09985 2.91924 1.09985H11.3056C11.8616 1.09985 12.3949 1.32074 12.7881 1.71393C13.1812 2.10711 13.4021 2.64039 13.4021 3.19643V8.78731C13.4021 9.34336 13.1812 9.87663 12.7881 10.2698C12.3949 10.663 11.8616 10.8839 11.3056 10.8839H2.91924C2.36319 10.8839 1.82992 10.663 1.43674 10.2698C1.04355 9.87663 0.822662 9.34336 0.822662 8.78731V3.19643Z" stroke="white" stroke-width="1.39772" stroke-linecap="round" stroke-linejoin="round"/>
</svg>
