<svg width="21" height="21" viewBox="0 0 21 21" fill="none" xmlns="http://www.w3.org/2000/svg">
<path d="M7.27462 13.7784L13.3409 7.71218M8.28566 8.2177C8.28566 8.49689 8.05933 8.72322 7.78014 8.72322C7.50095 8.72322 7.27462 8.49689 7.27462 8.2177C7.27462 7.93851 7.50095 7.71218 7.78014 7.71218C8.05933 7.71218 8.28566 7.93851 8.28566 8.2177ZM13.3409 13.2729C13.3409 13.5521 13.1145 13.7784 12.8353 13.7784C12.5562 13.7784 12.3298 13.5521 12.3298 13.2729C12.3298 12.9937 12.5562 12.7674 12.8353 12.7674C13.1145 12.7674 13.3409 12.9937 13.3409 13.2729ZM3.23043 5.89277C3.23043 5.30285 3.46477 4.73709 3.88191 4.31996C4.29904 3.90282 4.8648 3.66848 5.45472 3.66848H6.46576C7.05307 3.66814 7.61642 3.43554 8.03287 3.02141L8.7406 2.31368C8.94731 2.10581 9.19307 1.94085 9.46374 1.82829C9.73442 1.71572 10.0247 1.65778 10.3178 1.65778C10.611 1.65778 10.9012 1.71572 11.1719 1.82829C11.4426 1.94085 11.6883 2.10581 11.8951 2.31368L12.6028 3.02141C13.0192 3.43554 13.5826 3.66814 14.1699 3.66848H15.1809C15.7709 3.66848 16.3366 3.90282 16.7538 4.31996C17.1709 4.73709 17.4052 5.30285 17.4052 5.89277V6.90381C17.4056 7.49112 17.6382 8.05447 18.0523 8.47093L18.76 9.17865C18.9679 9.38536 19.1329 9.63112 19.2454 9.90179C19.358 10.1725 19.4159 10.4627 19.4159 10.7559C19.4159 11.049 19.358 11.3393 19.2454 11.61C19.1329 11.8806 18.9679 12.1264 18.76 12.3331L18.0523 13.0408C17.6382 13.4573 17.4056 14.0206 17.4052 14.6079V15.619C17.4052 16.2089 17.1709 16.7747 16.7538 17.1918C16.3366 17.6089 15.7709 17.8433 15.1809 17.8433H14.1699C13.5826 17.8436 13.0192 18.0762 12.6028 18.4903L11.8951 19.1981C11.6883 19.4059 11.4426 19.5709 11.1719 19.6835C10.9012 19.796 10.611 19.854 10.3178 19.854C10.0247 19.854 9.73442 19.796 9.46374 19.6835C9.19307 19.5709 8.94731 19.4059 8.7406 19.1981L8.03287 18.4903C7.61642 18.0762 7.05307 17.8436 6.46576 17.8433H5.45472C4.8648 17.8433 4.29904 17.6089 3.88191 17.1918C3.46477 16.7747 3.23043 16.2089 3.23043 15.619V14.6079C3.23009 14.0206 2.99749 13.4573 2.58336 13.0408L1.87563 12.3331C1.66776 12.1264 1.5028 11.8806 1.39024 11.61C1.27767 11.3393 1.21973 11.049 1.21973 10.7559C1.21973 10.4627 1.27767 10.1725 1.39024 9.90179C1.5028 9.63112 1.66776 9.38536 1.87563 9.17865L2.58336 8.47093C2.99749 8.05447 3.23009 7.49112 3.23043 6.90381V5.89277Z" stroke="#42429B" stroke-width="2.02208" stroke-linecap="round" stroke-linejoin="round"/>
</svg>
