<svg width="100" height="100" viewBox="0 0 100 100" fill="none" xmlns="http://www.w3.org/2000/svg">
<circle cx="50" cy="50" r="50" fill="#42429B"/>
<path d="M51.9297 62.0295H44.8242V60.5572C44.8242 54.732 48.4089 51.7233 51.8016 49.0988C54.6822 46.7943 57.3068 44.6178 57.3068 40.9051C57.3068 36.5521 54.6182 33.6715 50.1373 33.6715C45.5923 33.6715 42.4557 37.0642 42.4557 41.9933H34.326C34.326 32.8394 41.0474 26.374 50.3293 26.374C59.8673 26.374 65.6285 31.8792 65.6285 40.3929C65.6285 47.2424 61.2116 50.5071 57.4988 53.1316C54.3622 55.3721 51.9297 57.2925 51.9297 60.5572V62.0295ZM48.665 74.8322C45.7844 74.8322 43.4799 72.5277 43.4799 69.7751C43.4799 66.9585 45.7844 64.654 48.665 64.654C51.4816 64.654 53.8501 66.9585 53.8501 69.7751C53.8501 72.4637 51.4816 74.8322 48.665 74.8322Z" fill="white"/>
</svg>
