<svg width="33" height="37" viewBox="0 0 33 37" fill="none" xmlns="http://www.w3.org/2000/svg">
<path d="M30.9827 19.3688H29.3933V18.182H27.6344V12.4602H25.6V9.70521H22.188V7.6072H20.7894V6.03899H18.7126V6.71714H15.1311V5.04297C6.73906 5.25489 0 12.0999 0 20.5343C0 29.0959 6.95098 36.0469 15.5126 36.0469C24.0741 36.0469 31.0251 29.0959 31.0251 20.5343C31.0251 20.1529 31.0251 19.7502 30.9827 19.3688Z" fill="#F9A34E"/>
<path d="M22.231 1.16406H20.1118V3.28326H22.231V1.16406Z" fill="#F9A34E"/>
<path d="M32.1698 -3.8147e-05H29.2241V2.94565H32.1698V-3.8147e-05Z" fill="#F9A34E"/>
<path d="M27.2743 3.26562H24.3286V6.21132H27.2743V3.26562Z" fill="#F9A34E"/>
<path d="M29.0542 8.73047H26.7866V10.998H29.0542V8.73047Z" fill="#F9A34E"/>
<path d="M31.4286 15.5156H30.1782V16.766H31.4286V15.5156Z" fill="#F9A34E"/>
<path d="M17.8011 2.58594H16.5508V3.83627H17.8011V2.58594Z" fill="#F9A34E"/>
<path d="M17.144 10.2813L19.4963 10.3449C19.6234 10.3449 19.7082 10.4932 19.687 10.6416L19.0512 13.7568C19.03 13.8627 18.9453 13.9475 18.8393 13.9475L16.487 13.8627C16.3599 13.8627 16.2751 13.7144 16.2963 13.5661L16.932 10.472C16.9744 10.3449 17.0592 10.2813 17.144 10.2813Z" fill="#42429B"/>
<path d="M12.9915 27.5743L15.577 27.5954C15.7253 27.5954 15.8101 27.7226 15.7889 27.8498L15.1531 30.6047C15.1319 30.7107 15.0472 30.7742 14.9412 30.7742L12.2074 30.7319C12.0591 30.7319 12.1227 30.5835 12.1438 30.4564L12.7796 27.7226C12.7796 27.6378 12.8856 27.5743 12.9915 27.5743Z" fill="#42429B"/>
<path d="M19.9203 10.7904L19.1998 13.9057C19.1998 13.9481 19.1998 13.9692 19.1998 14.0116C19.2422 14.3295 19.1998 14.7322 19.0938 15.1984L18.9031 16.0037C18.4157 18.0805 17.8435 18.6103 15.9362 18.6103H15.1097C14.919 18.6103 14.7707 18.4196 14.8131 18.25L15.9362 13.7573L16.6356 10.6845C16.678 10.4938 16.5296 10.3242 16.3389 10.3242H13.4356C13.3084 10.3242 13.1813 10.409 13.1389 10.5573L8.11638 30.3507C8.074 30.5414 8.20115 30.7109 8.41307 30.7109H11.3376C11.4647 30.7109 11.5919 30.6262 11.6131 30.499L12.3124 28.0407L14.029 21.3653C14.0713 21.2381 14.1773 21.1321 14.3256 21.1321H15.1521C17.5892 21.1321 17.7164 22.1282 17.3561 23.7811L17.0382 25.1798C16.8687 25.9427 16.678 26.5361 16.4025 27.0023C16.3813 27.0235 16.3813 27.0447 16.3813 27.0659L15.5124 30.1599C15.4488 30.3719 15.6396 30.5626 15.8515 30.5414C18.7972 30.054 20.0687 28.4222 20.7256 25.5401L21.0435 24.1626C21.4462 22.4249 21.0223 21.0898 19.7508 20.3268C19.5389 20.1997 19.5601 19.8818 19.7932 19.797C21.1283 19.2884 22.0395 18.1653 22.4422 16.4063L22.6965 15.3043C23.2475 12.7825 22.527 11.1295 20.2806 10.5361C20.1323 10.5149 19.9627 10.6209 19.9203 10.7904Z" fill="#42429B"/>
</svg>
