<svg width="22" height="22" viewBox="0 0 22 22" fill="none" xmlns="http://www.w3.org/2000/svg">
<path fill-rule="evenodd" clip-rule="evenodd" d="M1.625 2.83942C1.625 2.16906 2.16906 1.625 2.83942 1.625H10.7012C11.3728 1.625 11.9167 2.16934 11.9167 2.83942V4.33333H8.75658C7.51052 4.33333 6.5 5.34386 6.5 6.58992V8.39583V12.3684C6.5 13.6149 7.51091 14.625 8.75767 14.625H11.9167V18.2856C11.9167 18.956 11.3726 19.5 10.7023 19.5H2.83942C2.16906 19.5 1.625 18.956 1.625 18.2856V2.83942ZM8.125 9.20833V12.3684C8.125 12.7166 8.40753 13 8.75767 13H12.7292H18.8684C19.2166 13 19.5 12.7175 19.5 12.3673V9.20833H8.125ZM19.5 7.58333H8.125V6.58992C8.125 6.24131 8.40797 5.95833 8.75658 5.95833H12.7292H18.8673C19.2175 5.95833 19.5 6.24171 19.5 6.58992V7.58333ZM21.125 8.39583V6.58992C21.125 5.34346 20.114 4.33333 18.8673 4.33333H13.5417V2.83942C13.5417 1.27132 12.2698 0 10.7012 0H2.83942C1.27161 0 0 1.27161 0 2.83942V18.2856C0 19.8534 1.27161 21.125 2.83942 21.125H10.7023C12.2701 21.125 13.5417 19.8534 13.5417 18.2856V14.625H18.8684C20.1149 14.625 21.125 13.614 21.125 12.3673V8.39583ZM4.38755 16.7917C3.93883 16.7917 3.57505 17.1555 3.57505 17.6042C3.57505 18.0529 3.93883 18.4167 4.38755 18.4167H9.15417C9.60299 18.4167 9.96667 18.0529 9.96667 17.6042C9.96667 17.1555 9.60299 16.7917 9.15417 16.7917H4.38755Z" fill="#212121"/>
</svg>
