<svg width="18" height="18" viewBox="0 0 18 18" fill="none" xmlns="http://www.w3.org/2000/svg">
<path d="M6.00024 12L12.0002 6M8.00024 3.00031L8.46324 2.46431C9.40105 1.52663 10.6729 0.999906 11.9991 1C13.3253 1.00009 14.5971 1.527 15.5347 2.46481C16.4724 3.40261 16.9991 4.6745 16.9991 6.00066C16.999 7.32682 16.4721 8.59863 15.5342 9.53631L15.0002 10.0003M10.0001 15L9.60314 15.534C8.65439 16.4722 7.37393 16.9984 6.03964 16.9984C4.70535 16.9984 3.42489 16.4722 2.47614 15.534C2.0085 15.0716 1.63724 14.521 1.38385 13.9141C1.13047 13.3073 1 12.6561 1 11.9985C1 11.3408 1.13047 10.6897 1.38385 10.0829C1.63724 9.47598 2.0085 8.9254 2.47614 8.463L3.00014 8" stroke="black" stroke-width="2" stroke-linecap="round" stroke-linejoin="round"/>
</svg>
