<svg width="115" height="43" viewBox="0 0 115 43" fill="none" xmlns="http://www.w3.org/2000/svg">
<path d="M30.9827 19.3688H29.3933V18.182H27.6344V12.4602H25.6V9.70521H22.188V7.6072H20.7894V6.03899H18.7126V6.71714H15.1311V5.04297C6.73906 5.25489 0 12.0999 0 20.5343C0 29.0959 6.95098 36.0469 15.5126 36.0469C24.0741 36.0469 31.0251 29.0959 31.0251 20.5343C31.0251 20.1529 31.0251 19.7502 30.9827 19.3688Z" fill="#F9A34E"/>
<path d="M22.231 1.16406H20.1118V3.28326H22.231V1.16406Z" fill="#F9A34E"/>
<path d="M32.1698 -3.8147e-05H29.2241V2.94565H32.1698V-3.8147e-05Z" fill="#F9A34E"/>
<path d="M27.2743 3.26562H24.3286V6.21132H27.2743V3.26562Z" fill="#F9A34E"/>
<path d="M29.0542 8.73047H26.7866V10.998H29.0542V8.73047Z" fill="#F9A34E"/>
<path d="M31.4286 15.5156H30.1782V16.766H31.4286V15.5156Z" fill="#F9A34E"/>
<path d="M17.8011 2.58594H16.5508V3.83627H17.8011V2.58594Z" fill="#F9A34E"/>
<path d="M17.144 10.2813L19.4963 10.3449C19.6234 10.3449 19.7082 10.4932 19.687 10.6416L19.0512 13.7568C19.03 13.8627 18.9453 13.9475 18.8393 13.9475L16.487 13.8627C16.3599 13.8627 16.2751 13.7144 16.2963 13.5661L16.932 10.472C16.9744 10.3449 17.0592 10.2813 17.144 10.2813Z" fill="#42429B"/>
<path d="M12.9915 27.5743L15.577 27.5954C15.7253 27.5954 15.8101 27.7226 15.7889 27.8498L15.1531 30.6047C15.1319 30.7107 15.0472 30.7742 14.9412 30.7742L12.2074 30.7319C12.0591 30.7319 12.1227 30.5835 12.1438 30.4564L12.7796 27.7226C12.7796 27.6378 12.8856 27.5743 12.9915 27.5743Z" fill="#42429B"/>
<path d="M49.0167 9.85332C52.0896 9.85332 54.7386 10.9553 56.9425 13.1381C59.1465 15.3209 60.2273 17.9699 60.2273 21.0639C60.2273 24.1367 59.1253 26.7857 56.9425 28.9897C54.7386 31.1937 52.1108 32.2745 49.0167 32.2745C45.9227 32.2745 43.2737 31.1725 41.0909 28.9897C38.9081 26.7857 37.8062 24.1579 37.8062 21.0639C37.8062 20.9791 37.8062 20.8944 37.8062 20.8096C37.8273 20.7884 37.8273 20.746 37.8273 20.7248H37.8062V0.210953H44.1426V10.9553C45.6472 10.2136 47.2578 9.85332 49.0167 9.85332ZM49.0167 25.9381C50.3518 25.9381 51.4962 25.4718 52.4498 24.5182C53.4035 23.5646 53.8697 22.4202 53.8697 21.0851C53.8697 19.75 53.4035 18.6056 52.4498 17.652C51.4962 16.6983 50.3518 16.2321 49.0167 16.2321C47.6816 16.2321 46.5373 16.6983 45.5836 17.652C44.63 18.6056 44.1638 19.75 44.1638 21.0851C44.1638 22.4202 44.63 23.5646 45.5836 24.5182C46.5373 25.4718 47.6604 25.9381 49.0167 25.9381Z" fill="#42429B"/>
<path d="M83.92 20.7271C83.92 20.7483 83.92 20.7906 83.92 20.8118C83.92 20.8966 83.92 20.9602 83.92 21.0661C83.92 24.139 82.818 26.788 80.6352 28.9919C78.4313 31.1747 75.8034 32.2767 72.7094 32.2767C69.6366 32.2767 66.9876 31.1747 64.8048 28.9919C62.622 26.788 61.52 24.1602 61.52 21.0661C61.52 17.9721 62.622 15.3231 64.8048 13.1403C66.9876 10.9575 69.6366 9.85555 72.7094 9.85555C74.4683 9.85555 76.1001 10.237 77.5836 10.9787V0.234375H83.92V20.7271ZM72.7094 25.9403C74.0657 25.9403 75.2101 25.4741 76.1637 24.5204C77.1173 23.5668 77.5836 22.4224 77.5836 21.0873C77.5836 19.7522 77.1173 18.6079 76.1637 17.6542C75.2101 16.7006 74.0657 16.2343 72.7094 16.2343C71.3743 16.2343 70.2299 16.7006 69.2763 17.6542C68.3227 18.6079 67.8564 19.7522 67.8564 21.0873C67.8564 22.4224 68.3227 23.5668 69.2763 24.5204C70.2299 25.4741 71.3531 25.9403 72.7094 25.9403Z" fill="#F9A34E"/>
<path d="M97.2081 9.43359C100.281 9.43359 102.93 10.5356 105.113 12.7184C107.296 14.9011 108.398 17.5501 108.398 20.6442C108.398 23.717 107.296 26.366 105.113 28.5488C102.93 30.7316 100.281 31.8336 97.2081 31.8336C94.1141 31.8336 91.4651 30.7316 89.2823 28.5488C87.0995 26.366 85.9976 23.717 85.9976 20.6442C85.9976 17.5501 87.0995 14.9011 89.2823 12.7184C91.4651 10.5356 94.0929 9.43359 97.2081 9.43359ZM97.2081 35.8812C99.3909 35.8812 100.938 34.7157 101.849 32.4057H108.313C108.207 33.2958 107.995 34.1647 107.677 34.97C105.473 39.8018 101.976 42.2176 97.2081 42.2176C92.228 42.2176 88.6889 39.6534 86.5485 34.5038C86.3154 33.8256 86.1671 33.1263 86.0823 32.4057H92.5459C93.4359 34.7157 95.0042 35.8812 97.2081 35.8812ZM97.2081 25.5183C98.5432 25.5183 99.6876 25.0521 100.641 24.0985C101.595 23.1448 102.061 22.0005 102.061 20.6654C102.061 19.3303 101.595 18.1859 100.641 17.2323C99.6876 16.2786 98.5432 15.8124 97.2081 15.8124C95.873 15.8124 94.7287 16.2786 93.775 17.2323C92.8214 18.1859 92.3552 19.3303 92.3552 20.6654C92.3552 22.0005 92.8214 23.1448 93.775 24.0985C94.7075 25.0309 95.8518 25.5183 97.2081 25.5183Z" fill="#42429B"/>
<path d="M111.789 32.5156C111.81 32.5156 111.81 32.5156 111.831 32.5156C112.17 32.5156 112.446 32.6428 112.679 32.8759C112.912 33.109 113.039 33.3845 113.039 33.7236C113.039 34.0626 112.912 34.3381 112.679 34.5713C112.446 34.8044 112.17 34.9315 111.831 34.9315C111.492 34.9315 111.217 34.8044 110.983 34.5713C110.75 34.3381 110.623 34.0626 110.623 33.7236C110.623 33.5328 110.666 33.3633 110.75 33.1938H109.606V32.5156H111.789ZM112.34 33.7236C112.34 33.5752 112.297 33.4481 112.191 33.3633C112.085 33.2573 111.958 33.215 111.831 33.215C111.683 33.215 111.556 33.2573 111.471 33.3633C111.365 33.4693 111.323 33.5964 111.323 33.7236C111.323 33.8719 111.365 33.9991 111.471 34.0838C111.577 34.1898 111.704 34.2322 111.831 34.2322C111.979 34.2322 112.107 34.1898 112.191 34.0838C112.276 33.9779 112.34 33.8719 112.34 33.7236Z" fill="#F49A40"/>
<path d="M110.369 31.8775C110.369 31.9835 110.326 32.0683 110.263 32.153C110.199 32.2378 110.093 32.259 109.987 32.259C109.881 32.259 109.797 32.2166 109.712 32.153C109.627 32.0895 109.606 31.9835 109.606 31.8775C109.606 31.7716 109.648 31.6868 109.712 31.6021C109.775 31.5173 109.881 31.4961 109.987 31.4961C110.093 31.4961 110.178 31.5385 110.263 31.6021C110.348 31.6656 110.369 31.7716 110.369 31.8775ZM110.623 31.5385H113.018V32.2166H110.623V31.5385Z" fill="#F49A40"/>
<path d="M110.624 30.165C110.624 29.8259 110.751 29.5504 110.984 29.3173C111.217 29.0842 111.492 28.957 111.831 28.957C112.171 28.957 112.446 29.0842 112.679 29.3173C112.912 29.5504 113.039 29.8259 113.039 30.165C113.039 30.5041 112.912 30.7795 112.679 31.0127C112.446 31.2458 112.171 31.3729 111.831 31.3729C111.492 31.3729 111.217 31.2458 110.984 31.0127C110.751 30.7795 110.624 30.5041 110.624 30.165ZM112.34 30.165C112.34 30.0166 112.298 29.8895 112.192 29.8047C112.086 29.6988 111.959 29.6564 111.831 29.6564C111.683 29.6564 111.556 29.6988 111.471 29.8047C111.386 29.9107 111.323 30.0378 111.323 30.165C111.323 30.3133 111.365 30.4405 111.471 30.5252C111.577 30.6312 111.704 30.6736 111.831 30.6736C111.98 30.6736 112.107 30.6312 112.192 30.5252C112.298 30.4193 112.34 30.3133 112.34 30.165ZM113.4 30.165C113.4 29.9319 113.273 29.7623 113.018 29.6776V28.9782C113.124 28.9994 113.209 29.0206 113.294 29.0418C113.802 29.2749 114.078 29.6564 114.078 30.165C114.078 30.6948 113.802 31.0762 113.251 31.3093C113.188 31.3305 113.103 31.3517 113.018 31.3517V30.6524C113.273 30.5676 113.4 30.3981 113.4 30.165Z" fill="#F49A40"/>
<path d="M110.369 28.444C110.369 28.5499 110.326 28.6347 110.263 28.7195C110.199 28.8042 110.093 28.8254 109.987 28.8254C109.881 28.8254 109.797 28.783 109.712 28.7195C109.627 28.6559 109.606 28.5499 109.606 28.444C109.606 28.338 109.648 28.2532 109.712 28.1685C109.775 28.0837 109.881 28.0625 109.987 28.0625C110.093 28.0625 110.178 28.1049 110.263 28.1685C110.348 28.232 110.369 28.338 110.369 28.444ZM110.623 28.1049H113.018V28.783H110.623V28.1049Z" fill="#F49A40"/>
<path d="M109.944 26.9634H110.622V26.4336H111.11V26.9634H111.809C111.809 26.9634 111.809 26.9634 111.83 26.9634C111.979 26.9634 112.106 26.921 112.191 26.8151C112.297 26.7091 112.339 26.5819 112.339 26.4336H113.017C113.017 26.7727 112.89 27.0482 112.657 27.2813C112.424 27.5144 112.148 27.6204 111.809 27.6204H111.788H111.11V27.8958H110.622V27.6204H109.944V26.9634Z" fill="#F49A40"/>
<path d="M110.624 25.2236C110.624 24.8845 110.751 24.609 110.984 24.3759C111.217 24.1428 111.492 24.0156 111.831 24.0156H111.853H113.018V24.6938H112.891C112.976 24.8633 113.018 25.0328 113.018 25.2236C113.018 25.5626 112.891 25.8381 112.658 26.0713C112.425 26.3044 112.149 26.4315 111.81 26.4315C111.471 26.4315 111.196 26.3044 110.963 26.0713C110.751 25.8381 110.624 25.5626 110.624 25.2236ZM112.34 25.2236C112.34 25.0752 112.298 24.9481 112.192 24.8633C112.086 24.7573 111.959 24.715 111.831 24.715C111.683 24.715 111.556 24.7573 111.471 24.8633C111.386 24.9693 111.323 25.0964 111.323 25.2236C111.323 25.3719 111.365 25.4991 111.471 25.5838C111.577 25.6898 111.704 25.7322 111.831 25.7322C111.98 25.7322 112.107 25.6898 112.192 25.5838C112.298 25.4991 112.34 25.3719 112.34 25.2236Z" fill="#F49A40"/>
<path d="M113.039 23.7602H109.606V23.082H113.039V23.7602Z" fill="#F49A40"/>
<path d="M108.375 8.83594H102.675V18.775H108.375V8.83594Z" fill="#42429B"/>
<path d="M19.9203 10.7904L19.1998 13.9057C19.1998 13.9481 19.1998 13.9692 19.1998 14.0116C19.2422 14.3295 19.1998 14.7322 19.0938 15.1984L18.9031 16.0037C18.4157 18.0805 17.8435 18.6103 15.9362 18.6103H15.1097C14.919 18.6103 14.7707 18.4196 14.8131 18.25L15.9362 13.7573L16.6356 10.6845C16.678 10.4938 16.5296 10.3242 16.3389 10.3242H13.4356C13.3084 10.3242 13.1813 10.409 13.1389 10.5573L8.11638 30.3507C8.074 30.5414 8.20115 30.7109 8.41307 30.7109H11.3376C11.4647 30.7109 11.5919 30.6262 11.6131 30.499L12.3124 28.0407L14.029 21.3653C14.0713 21.2381 14.1773 21.1321 14.3256 21.1321H15.1521C17.5892 21.1321 17.7164 22.1282 17.3561 23.7811L17.0382 25.1798C16.8687 25.9427 16.678 26.5361 16.4025 27.0023C16.3813 27.0235 16.3813 27.0447 16.3813 27.0659L15.5124 30.16C15.4488 30.3719 15.6396 30.5626 15.8515 30.5414C18.7972 30.054 20.0687 28.4222 20.7256 25.5401L21.0435 24.1626C21.4462 22.4249 21.0223 21.0898 19.7508 20.3268C19.5389 20.1997 19.5601 19.8818 19.7932 19.797C21.1283 19.2884 22.0395 18.1653 22.4422 16.4063L22.6965 15.3043C23.2475 12.7825 22.527 11.1295 20.2806 10.5361C20.1323 10.5149 19.9627 10.6209 19.9203 10.7904Z" fill="#42429B"/>
</svg>
