<svg width="37" height="41" viewBox="0 0 37 41" fill="none" xmlns="http://www.w3.org/2000/svg">
<path d="M35.0959 21.9396H33.2955V20.5953H31.303V14.1138H28.9985V10.9931H25.1337V8.61656H23.5493V6.84016H21.1968V7.60834H17.1399V5.71191C7.63372 5.95197 0 13.7057 0 23.2599C0 32.958 7.87377 40.8318 17.572 40.8318C27.2701 40.8318 35.1439 32.958 35.1439 23.2599C35.1439 22.8278 35.1439 22.3717 35.0959 21.9396Z" fill="white"/>
<path d="M25.1818 1.32031H22.7812V3.72085H25.1818V1.32031Z" fill="white"/>
<path d="M36.4408 0H33.104V3.33675H36.4408V0Z" fill="white"/>
<path d="M30.8953 3.69531H27.5586V7.03207H30.8953V3.69531Z" fill="white"/>
<path d="M32.9118 9.88965H30.3433V12.4582H32.9118V9.88965Z" fill="white"/>
<path d="M35.6004 17.5732H34.1841V18.9896H35.6004V17.5732Z" fill="white"/>
<path d="M20.1639 2.92871H18.7476V4.34503H20.1639V2.92871Z" fill="white"/>
<path d="M19.4199 11.6436L22.0845 11.7156C22.2286 11.7156 22.3246 11.8836 22.3006 12.0516L21.5804 15.5804C21.5564 15.7005 21.4604 15.7965 21.3404 15.7965L18.6758 15.7005C18.5318 15.7005 18.4357 15.5324 18.4597 15.3644L19.1799 11.8596C19.2279 11.7156 19.3239 11.6436 19.4199 11.6436Z" fill="#42429B"/>
<path d="M14.7155 31.2324L17.6441 31.2564C17.8122 31.2564 17.9082 31.4005 17.8842 31.5445L17.164 34.6652C17.14 34.7852 17.044 34.8572 16.924 34.8572L13.8273 34.8092C13.6592 34.8092 13.7312 34.6412 13.7552 34.4972L14.4754 31.4005C14.4754 31.3044 14.5954 31.2324 14.7155 31.2324Z" fill="#42429B"/>
<path d="M22.5653 12.2205L21.7491 15.7493C21.7491 15.7973 21.7491 15.8213 21.7491 15.8693C21.7971 16.2294 21.7491 16.6855 21.6291 17.2136L21.413 18.1258C20.8609 20.4784 20.2127 21.0785 18.0522 21.0785H17.116C16.9 21.0785 16.7319 20.8624 16.78 20.6704L18.0522 15.5813L18.8444 12.1005C18.8924 11.8844 18.7244 11.6924 18.5084 11.6924H15.2196C15.0756 11.6924 14.9315 11.7884 14.8835 11.9564L9.19426 34.3775C9.14625 34.5935 9.29028 34.7856 9.53033 34.7856H12.8431C12.9871 34.7856 13.1311 34.6896 13.1551 34.5455L13.9473 31.7609L15.8918 24.1992C15.9398 24.0552 16.0598 23.9351 16.2278 23.9351H17.164C19.9247 23.9351 20.0687 25.0634 19.6606 26.9358L19.3005 28.5202C19.1085 29.3844 18.8924 30.0565 18.5804 30.5846C18.5564 30.6086 18.5564 30.6326 18.5564 30.6566L17.5721 34.1614C17.5001 34.4015 17.7162 34.6175 17.9562 34.5935C21.293 34.0414 22.7333 32.193 23.4775 28.9283L23.8376 27.3679C24.2937 25.3995 23.8135 23.8871 22.3732 23.0229C22.1332 22.8789 22.1572 22.5188 22.4212 22.4228C23.9336 21.8467 24.9658 20.5744 25.4219 18.5819L25.71 17.3336C26.3341 14.477 25.5179 12.6046 22.9734 11.9324C22.8053 11.9084 22.6133 12.0285 22.5653 12.2205Z" fill="#42429B"/>
</svg>
