<svg width="52" height="32" viewBox="0 0 52 32" fill="none" xmlns="http://www.w3.org/2000/svg">
<path d="M33.4649 3.40186H18.1348V28.4067H33.4649V3.40186Z" fill="#FF5F00"/>
<path d="M19.6816 15.9043C19.6827 11.0309 21.9121 6.42559 25.7339 3.40185C19.2136 -1.7247 9.84826 -0.97951 4.22068 5.11364C-1.40689 11.2068 -1.40689 20.6017 4.22068 26.6949C9.84826 32.788 19.2136 33.5332 25.7339 28.4066C21.9121 25.3829 19.6827 20.7776 19.6816 15.9043Z" fill="#EB001B"/>
<path d="M51.4908 15.904C51.4953 21.989 48.0238 27.542 42.5517 30.2034C37.0796 32.8647 30.5681 32.1669 25.7842 28.4064C29.6069 25.3834 31.8366 20.7776 31.8366 15.904C31.8366 11.0304 29.6069 6.42464 25.7842 3.40164C30.5681 -0.358835 37.0796 -1.05666 42.5517 1.6047C48.0238 4.26606 51.4953 9.81906 51.4908 15.904Z" fill="#F79E1B"/>
</svg>
