<svg width="19" height="20" viewBox="0 0 19 20" fill="none" xmlns="http://www.w3.org/2000/svg">
<path d="M3.92115 6.05897L2.4325 7.54762C1.04134 8.93877 1.04134 11.1943 2.4325 12.5854L3.92115 14.0741M3.92115 6.05897L7.19094 2.78917C8.5821 1.39802 10.8376 1.39802 12.2288 2.78917L15.4986 6.05897M3.92115 6.05897L5.81296 6.05897C6.02867 6.05897 6.23706 6.13726 6.3994 6.27931L9.12341 8.66282C9.45918 8.95662 9.96053 8.95662 10.2963 8.66282L13.0203 6.27931C13.1827 6.13726 13.391 6.05897 13.6068 6.05897L15.4986 6.05897M15.4986 6.05897L16.9872 7.54762C18.3784 8.93878 18.3784 11.1943 16.9872 12.5854L15.4986 14.0741M3.92115 14.0741L7.19094 17.3439C8.5821 18.735 10.8376 18.735 12.2288 17.3439L15.4986 14.0741M3.92115 14.0741H5.89216C6.05907 14.0741 6.22262 14.0272 6.36416 13.9387L9.23785 12.1427C9.52664 11.9622 9.89307 11.9622 10.1819 12.1427L13.0555 13.9387C13.1971 14.0272 13.3606 14.0741 13.5275 14.0741H15.4986" stroke="white" stroke-width="1.78114"/>
</svg>
