<svg width="22" height="22" viewBox="0 0 22 22" fill="none" xmlns="http://www.w3.org/2000/svg">
<path d="M5.41556 13.1975C4.25016 13.8554 3.3078 14.8464 2.7093 16.0435C2.11079 17.2405 1.88341 18.5889 2.05631 19.916C3.38339 20.0889 4.73187 19.8615 5.92888 19.263C7.12589 18.6645 8.11688 17.7222 8.77481 16.5568M2.05632 12.0778C4.05294 12.315 5.91167 13.2171 7.33343 14.6389C8.75519 16.0607 9.65729 17.9194 9.89457 19.916C10.8843 19.3454 11.7123 18.5318 12.3001 17.5522C12.8878 16.5725 13.2161 15.4591 13.2538 14.3173C15.134 13.6558 16.7758 12.4518 17.9717 10.8572C19.1676 9.26274 19.8638 7.34943 19.9723 5.35925C19.9723 4.46832 19.6184 3.61389 18.9884 2.9839C18.3584 2.35392 17.504 2 16.6131 2C14.6229 2.10851 12.7096 2.80473 11.1151 4.00061C9.52058 5.19649 8.31649 6.83832 7.65507 8.71851C6.51322 8.75622 5.39984 9.08449 4.42018 9.67228C3.44052 10.2601 2.62693 11.088 2.05632 12.0778ZM13.2538 7.59876C13.2538 7.89573 13.3718 8.18055 13.5818 8.39054C13.7918 8.60054 14.0766 8.71851 14.3736 8.71851C14.6706 8.71851 14.9554 8.60054 15.1654 8.39054C15.3754 8.18055 15.4933 7.89573 15.4933 7.59876C15.4933 7.30178 15.3754 7.01697 15.1654 6.80697C14.9554 6.59698 14.6706 6.47901 14.3736 6.47901C14.0766 6.47901 13.7918 6.59698 13.5818 6.80697C13.3718 7.01697 13.2538 7.30178 13.2538 7.59876Z" stroke="black" stroke-width="2.2395" stroke-linecap="round" stroke-linejoin="round"/>
</svg>
