<svg width="54" height="18" viewBox="0 0 54 18" fill="none" xmlns="http://www.w3.org/2000/svg">
<path d="M27.7453 5.95208C27.7153 8.3174 29.8563 9.63742 31.4691 10.4222C33.1263 11.2275 33.6829 11.7438 33.6765 12.4638C33.6639 13.5659 32.3546 14.0523 31.1292 14.0712C28.9913 14.1044 27.7485 13.4949 26.7602 13.0338L25.9902 16.6323C26.9816 17.0886 28.8174 17.4865 30.7212 17.5039C35.1898 17.5039 38.1135 15.3012 38.1293 11.8859C38.1467 7.55159 32.1254 7.31158 32.1665 5.37418C32.1807 4.78679 32.742 4.15994 33.9722 4.00046C34.581 3.91993 36.2619 3.85835 38.1673 4.73469L38.9152 1.25304C37.8905 0.880396 36.5734 0.523546 34.9336 0.523546C30.7275 0.523546 27.7691 2.75622 27.7453 5.95208ZM46.1019 0.823552C45.286 0.823552 44.5981 1.29883 44.2914 2.02832L37.9079 17.2481H42.3733L43.262 14.796H48.7188L49.2343 17.2481H53.17L49.7356 0.823552H46.1019ZM46.7265 5.26049L48.0152 11.428H44.4859L46.7265 5.26049ZM22.3312 0.823552L18.8114 17.2481H23.0665L26.5847 0.823552H22.3312ZM16.0363 0.823552L11.6072 12.0027L9.81571 2.49727C9.6054 1.4362 8.77525 0.823552 7.85339 0.823552H0.612918L0.511719 1.3004C1.99808 1.62252 3.68684 2.142 4.7099 2.6978C5.33607 3.03728 5.51475 3.33413 5.72031 4.14099L9.11364 17.2481H13.6107L20.5049 0.823552H16.0363Z" fill="#42429B"/>
</svg>
